<mxfile host="app.diagrams.net" modified="2023-07-15T00:15:13.742Z" agent="Mozilla/5.0 (Windows NT 10.0; Win64; x64) AppleWebKit/537.36 (KHTML, like Gecko) Chrome/114.0.0.0 Safari/537.36" etag="yZ9TeQZdJm9QdB7j5_RL" version="21.6.1" type="google" pages="3">
  <diagram name="Arq. Logica" id="8OsgEm5mDn8Ma4OJDf1H">
    <mxGraphModel dx="2501" dy="1816" grid="0" gridSize="10" guides="1" tooltips="1" connect="1" arrows="1" fold="1" page="1" pageScale="1" pageWidth="827" pageHeight="1169" math="0" shadow="0">
      <root>
        <mxCell id="0" />
        <mxCell id="1" parent="0" />
        <mxCell id="deR8jdC6dyFpVtyxwruU-93" value="" style="rounded=0;whiteSpace=wrap;html=1;dashed=1;strokeWidth=2;strokeColor=#172DBF;" parent="1" vertex="1">
          <mxGeometry x="52" y="74" width="560" height="459.5" as="geometry" />
        </mxCell>
        <mxCell id="deR8jdC6dyFpVtyxwruU-94" value="&lt;b style=&quot;font-size: 14px&quot;&gt;Cloud Azure -&amp;nbsp;&lt;/b&gt;&lt;span style=&quot;font-size: 14px&quot;&gt;Tenant: unmsm.com.pe&lt;/span&gt;" style="text;html=1;strokeColor=none;fillColor=none;align=center;verticalAlign=middle;whiteSpace=wrap;rounded=0;dashed=1;" parent="1" vertex="1">
          <mxGeometry x="198.47000000000003" y="74" width="340" height="20" as="geometry" />
        </mxCell>
        <mxCell id="deR8jdC6dyFpVtyxwruU-95" value="SuscripciÃ³n&amp;nbsp; suscripcion-grupo-niche" style="fontStyle=0;verticalAlign=top;align=center;spacingTop=-2;rounded=0;whiteSpace=wrap;html=1;strokeWidth=2;dashed=1;container=1;collapsible=0;expand=0;recursiveResize=0;" parent="1" vertex="1">
          <mxGeometry x="72" y="103.5" width="520" height="419" as="geometry" />
        </mxCell>
        <mxCell id="deR8jdC6dyFpVtyxwruU-97" style="edgeStyle=orthogonalEdgeStyle;rounded=0;orthogonalLoop=1;jettySize=auto;html=1;exitX=1;exitY=0.935;exitDx=0;exitDy=0;exitPerimeter=0;" parent="deR8jdC6dyFpVtyxwruU-95" source="deR8jdC6dyFpVtyxwruU-98" target="deR8jdC6dyFpVtyxwruU-99" edge="1">
          <mxGeometry relative="1" as="geometry">
            <Array as="points" />
            <mxPoint x="400" y="221.51538461538462" as="sourcePoint" />
            <mxPoint x="439" y="224.5" as="targetPoint" />
          </mxGeometry>
        </mxCell>
        <mxCell id="ZwlUEVx7gkROB-G7AdeV-15" style="edgeStyle=orthogonalEdgeStyle;rounded=0;orthogonalLoop=1;jettySize=auto;html=1;fontSize=11;entryX=0;entryY=0.507;entryDx=0;entryDy=0;entryPerimeter=0;" parent="deR8jdC6dyFpVtyxwruU-95" source="deR8jdC6dyFpVtyxwruU-98" target="deR8jdC6dyFpVtyxwruU-101" edge="1">
          <mxGeometry relative="1" as="geometry">
            <Array as="points">
              <mxPoint x="411" y="49" />
              <mxPoint x="411" y="72" />
            </Array>
          </mxGeometry>
        </mxCell>
        <mxCell id="deR8jdC6dyFpVtyxwruU-98" value="Cluster AKS&amp;nbsp;" style="fontStyle=0;verticalAlign=top;align=center;spacingTop=-2;fillColor=none;rounded=0;whiteSpace=wrap;html=1;strokeColor=#172DBF;strokeWidth=1;dashed=1;container=0;collapsible=0;expand=0;recursiveResize=0;" parent="deR8jdC6dyFpVtyxwruU-95" vertex="1">
          <mxGeometry x="19" y="27" width="357" height="242.47" as="geometry" />
        </mxCell>
        <mxCell id="deR8jdC6dyFpVtyxwruU-99" value="&lt;b style=&quot;color: rgb(0, 0, 0);&quot;&gt;Azure cache &lt;br&gt;for Redis&lt;/b&gt;" style="sketch=0;aspect=fixed;html=1;points=[];align=center;image;fontSize=12;image=img/lib/mscae/Azure_Cache_for_Redis.svg;dashed=1;fontColor=#EA6B66;strokeColor=#172DBF;strokeWidth=1.5;fillColor=#FF6666;gradientColor=#ffffff;labelBackgroundColor=none;" parent="deR8jdC6dyFpVtyxwruU-95" vertex="1">
          <mxGeometry x="441.00000000000006" y="244" width="50" height="50" as="geometry" />
        </mxCell>
        <mxCell id="deR8jdC6dyFpVtyxwruU-101" value="&lt;b style=&quot;background-color: rgb(248, 249, 250);&quot;&gt;Azure Database &lt;br&gt;for MySQL&amp;nbsp;&lt;/b&gt;" style="sketch=0;aspect=fixed;html=1;points=[];align=center;image;fontSize=12;image=img/lib/mscae/Azure_Database_for_MySQL_servers.svg;rounded=1;shadow=1;glass=1;strokeColor=default;fillColor=default;gradientColor=#ffffff;verticalAlign=top;labelPosition=center;verticalLabelPosition=bottom;" parent="deR8jdC6dyFpVtyxwruU-95" vertex="1">
          <mxGeometry x="436" y="44.829999999999984" width="37.5" height="49.34" as="geometry" />
        </mxCell>
        <mxCell id="deR8jdC6dyFpVtyxwruU-103" value="&lt;b&gt;Storage Account&lt;/b&gt;" style="aspect=fixed;html=1;points=[];align=center;image;fontSize=12;image=img/lib/azure2/storage/Storage_Accounts.svg;labelBackgroundColor=none;" parent="deR8jdC6dyFpVtyxwruU-95" vertex="1">
          <mxGeometry x="64" y="314.32" width="53.77" height="43.02" as="geometry" />
        </mxCell>
        <mxCell id="deR8jdC6dyFpVtyxwruU-104" value="&lt;b style=&quot;color: rgb(0, 0, 0); font-family: helvetica; font-size: 12px; font-style: normal; letter-spacing: normal; text-align: center; text-indent: 0px; text-transform: none; word-spacing: 0px;&quot;&gt;Azure &lt;br&gt;Monitor&lt;/b&gt;" style="aspect=fixed;html=1;points=[];align=center;image;fontSize=12;image=img/lib/azure2/management_governance/Monitor.svg;dashed=1;labelBackgroundColor=none;" parent="deR8jdC6dyFpVtyxwruU-95" vertex="1">
          <mxGeometry x="209" y="305.00000000000006" width="38.18" height="38.18" as="geometry" />
        </mxCell>
        <mxCell id="deR8jdC6dyFpVtyxwruU-105" value="" style="aspect=fixed;html=1;points=[];align=center;image;fontSize=12;image=img/lib/azure2/compute/Kubernetes_Services.svg;dashed=1;strokeColor=#172DBF;strokeWidth=1.5;gradientColor=#ffffff;" parent="deR8jdC6dyFpVtyxwruU-95" vertex="1">
          <mxGeometry x="174" y="47" width="51" height="45" as="geometry" />
        </mxCell>
        <mxCell id="deR8jdC6dyFpVtyxwruU-114" value="Azure Container Registry" style="aspect=fixed;html=1;points=[];align=center;image;fontSize=12;image=img/lib/azure2/containers/Container_Registries.svg;" parent="deR8jdC6dyFpVtyxwruU-95" vertex="1">
          <mxGeometry x="345.34000000000003" y="306.83" width="64.66" height="58" as="geometry" />
        </mxCell>
        <mxCell id="ZwlUEVx7gkROB-G7AdeV-4" value="Login&lt;br style=&quot;font-size: 11px;&quot;&gt;Usuario" style="sketch=0;html=1;dashed=0;whitespace=wrap;fillColor=#2875E2;strokeColor=#ffffff;points=[[0.005,0.63,0],[0.1,0.2,0],[0.9,0.2,0],[0.5,0,0],[0.995,0.63,0],[0.72,0.99,0],[0.5,1,0],[0.28,0.99,0]];shape=mxgraph.kubernetes.icon;prIcon=api;verticalAlign=top;labelPosition=center;verticalLabelPosition=bottom;align=center;fontSize=11;" parent="deR8jdC6dyFpVtyxwruU-95" vertex="1">
          <mxGeometry x="31" y="97" width="50" height="48" as="geometry" />
        </mxCell>
        <mxCell id="ZwlUEVx7gkROB-G7AdeV-7" value="Registrar&lt;br style=&quot;font-size: 11px;&quot;&gt;usuario" style="sketch=0;html=1;dashed=0;whitespace=wrap;fillColor=#2875E2;strokeColor=#ffffff;points=[[0.005,0.63,0],[0.1,0.2,0],[0.9,0.2,0],[0.5,0,0],[0.995,0.63,0],[0.72,0.99,0],[0.5,1,0],[0.28,0.99,0]];shape=mxgraph.kubernetes.icon;prIcon=api;verticalAlign=top;labelPosition=center;verticalLabelPosition=bottom;align=center;fontSize=11;" parent="deR8jdC6dyFpVtyxwruU-95" vertex="1">
          <mxGeometry x="31" y="182" width="50" height="48" as="geometry" />
        </mxCell>
        <mxCell id="ZwlUEVx7gkROB-G7AdeV-9" value="Recuperar&lt;br&gt;cuenta" style="sketch=0;html=1;dashed=0;whitespace=wrap;fillColor=#2875E2;strokeColor=#ffffff;points=[[0.005,0.63,0],[0.1,0.2,0],[0.9,0.2,0],[0.5,0,0],[0.995,0.63,0],[0.72,0.99,0],[0.5,1,0],[0.28,0.99,0]];shape=mxgraph.kubernetes.icon;prIcon=api;verticalAlign=top;labelPosition=center;verticalLabelPosition=bottom;align=center;fontSize=11;" parent="deR8jdC6dyFpVtyxwruU-95" vertex="1">
          <mxGeometry x="112" y="97" width="50" height="48" as="geometry" />
        </mxCell>
        <mxCell id="ZwlUEVx7gkROB-G7AdeV-10" value="Consultar&lt;br&gt;horarios&lt;span style=&quot;color: rgba(0, 0, 0, 0); font-family: monospace; font-size: 0px; text-align: start;&quot;&gt;%3CmxGraphModel%3E%3Croot%3E%3CmxCell%20id%3D%220%22%2F%3E%3CmxCell%20id%3D%221%22%20parent%3D%220%22%2F%3E%3CmxCell%20id%3D%222%22%20value%3D%22Recuperar%26lt%3Bbr%26gt%3Bcuenta%22%20style%3D%22sketch%3D0%3Bhtml%3D1%3Bdashed%3D0%3Bwhitespace%3Dwrap%3BfillColor%3D%232875E2%3BstrokeColor%3D%23ffffff%3Bpoints%3D%5B%5B0.005%2C0.63%2C0%5D%2C%5B0.1%2C0.2%2C0%5D%2C%5B0.9%2C0.2%2C0%5D%2C%5B0.5%2C0%2C0%5D%2C%5B0.995%2C0.63%2C0%5D%2C%5B0.72%2C0.99%2C0%5D%2C%5B0.5%2C1%2C0%5D%2C%5B0.28%2C0.99%2C0%5D%5D%3Bshape%3Dmxgraph.kubernetes.icon%3BprIcon%3Dapi%3BverticalAlign%3Dtop%3BlabelPosition%3Dcenter%3BverticalLabelPosition%3Dbottom%3Balign%3Dcenter%3BfontSize%3D11%3B%22%20vertex%3D%221%22%20parent%3D%221%22%3E%3CmxGeometry%20x%3D%2295%22%20y%3D%22198.5%22%20width%3D%2250%22%20height%3D%2248%22%20as%3D%22geometry%22%2F%3E%3C%2FmxCell%3E%3C%2Froot%3E%3C%2FmxGraphModel%3E&lt;/span&gt;" style="sketch=0;html=1;dashed=0;whitespace=wrap;fillColor=#2875E2;strokeColor=#ffffff;points=[[0.005,0.63,0],[0.1,0.2,0],[0.9,0.2,0],[0.5,0,0],[0.995,0.63,0],[0.72,0.99,0],[0.5,1,0],[0.28,0.99,0]];shape=mxgraph.kubernetes.icon;prIcon=api;verticalAlign=top;labelPosition=center;verticalLabelPosition=bottom;align=center;fontSize=11;" parent="deR8jdC6dyFpVtyxwruU-95" vertex="1">
          <mxGeometry x="114" y="182" width="50" height="48" as="geometry" />
        </mxCell>
        <mxCell id="ZwlUEVx7gkROB-G7AdeV-11" value="Reservar&lt;br&gt;Cita" style="sketch=0;html=1;dashed=0;whitespace=wrap;fillColor=#2875E2;strokeColor=#ffffff;points=[[0.005,0.63,0],[0.1,0.2,0],[0.9,0.2,0],[0.5,0,0],[0.995,0.63,0],[0.72,0.99,0],[0.5,1,0],[0.28,0.99,0]];shape=mxgraph.kubernetes.icon;prIcon=api;verticalAlign=top;labelPosition=center;verticalLabelPosition=bottom;align=center;fontSize=11;" parent="deR8jdC6dyFpVtyxwruU-95" vertex="1">
          <mxGeometry x="197.18" y="100" width="50" height="48" as="geometry" />
        </mxCell>
        <mxCell id="ZwlUEVx7gkROB-G7AdeV-13" value="Consultar&lt;br&gt;mÃ©dicos" style="sketch=0;html=1;dashed=0;whitespace=wrap;fillColor=#2875E2;strokeColor=#ffffff;points=[[0.005,0.63,0],[0.1,0.2,0],[0.9,0.2,0],[0.5,0,0],[0.995,0.63,0],[0.72,0.99,0],[0.5,1,0],[0.28,0.99,0]];shape=mxgraph.kubernetes.icon;prIcon=api;verticalAlign=top;labelPosition=center;verticalLabelPosition=bottom;align=center;fontSize=11;" parent="deR8jdC6dyFpVtyxwruU-95" vertex="1">
          <mxGeometry x="197.18" y="185.5" width="50" height="48" as="geometry" />
        </mxCell>
        <mxCell id="ZwlUEVx7gkROB-G7AdeV-14" value="Consultar&lt;br&gt;BD" style="sketch=0;html=1;dashed=0;whitespace=wrap;fillColor=#2875E2;strokeColor=#ffffff;points=[[0.005,0.63,0],[0.1,0.2,0],[0.9,0.2,0],[0.5,0,0],[0.995,0.63,0],[0.72,0.99,0],[0.5,1,0],[0.28,0.99,0]];shape=mxgraph.kubernetes.icon;prIcon=api;verticalAlign=top;labelPosition=center;verticalLabelPosition=bottom;align=center;fontSize=11;" parent="deR8jdC6dyFpVtyxwruU-95" vertex="1">
          <mxGeometry x="295.34" y="64" width="50" height="48" as="geometry" />
        </mxCell>
        <mxCell id="ZwlUEVx7gkROB-G7AdeV-16" value="Servicio de&lt;br&gt;pago de citas" style="sketch=0;html=1;dashed=0;whitespace=wrap;fillColor=#2875E2;strokeColor=#ffffff;points=[[0.005,0.63,0],[0.1,0.2,0],[0.9,0.2,0],[0.5,0,0],[0.995,0.63,0],[0.72,0.99,0],[0.5,1,0],[0.28,0.99,0]];shape=mxgraph.kubernetes.icon;prIcon=api;verticalAlign=top;labelPosition=center;verticalLabelPosition=bottom;align=center;fontSize=11;" parent="deR8jdC6dyFpVtyxwruU-95" vertex="1">
          <mxGeometry x="295.34" y="171" width="50" height="48" as="geometry" />
        </mxCell>
        <mxCell id="ZwlUEVx7gkROB-G7AdeV-20" value="Microservicios" style="text;html=1;strokeColor=none;fillColor=none;align=center;verticalAlign=middle;whiteSpace=wrap;rounded=0;fontSize=12;fontStyle=1" parent="deR8jdC6dyFpVtyxwruU-95" vertex="1">
          <mxGeometry x="19" y="27" width="107" height="27" as="geometry" />
        </mxCell>
        <mxCell id="deR8jdC6dyFpVtyxwruU-116" value="" style="rounded=0;whiteSpace=wrap;html=1;labelBackgroundColor=none;dashed=1;" parent="1" vertex="1">
          <mxGeometry x="-114" y="133" width="100" height="185" as="geometry" />
        </mxCell>
        <mxCell id="deR8jdC6dyFpVtyxwruU-117" value="&lt;b&gt;&lt;font style=&quot;font-size: 14px&quot;&gt;SM Health APP&lt;br&gt;&lt;/font&gt;&lt;/b&gt;" style="text;html=1;resizable=0;points=[];autosize=1;align=center;verticalAlign=top;spacingTop=-4;labelBackgroundColor=none;" parent="1" vertex="1">
          <mxGeometry x="-122" y="208" width="118" height="23" as="geometry" />
        </mxCell>
        <mxCell id="deR8jdC6dyFpVtyxwruU-118" style="edgeStyle=orthogonalEdgeStyle;rounded=0;orthogonalLoop=1;jettySize=auto;html=1;" parent="1" source="deR8jdC6dyFpVtyxwruU-120" target="deR8jdC6dyFpVtyxwruU-105" edge="1">
          <mxGeometry relative="1" as="geometry" />
        </mxCell>
        <mxCell id="deR8jdC6dyFpVtyxwruU-119" style="edgeStyle=orthogonalEdgeStyle;rounded=0;orthogonalLoop=1;jettySize=auto;html=1;exitX=0.5;exitY=1;exitDx=0;exitDy=0;" parent="1" source="deR8jdC6dyFpVtyxwruU-120" edge="1">
          <mxGeometry relative="1" as="geometry">
            <Array as="points">
              <mxPoint x="-64" y="567" />
              <mxPoint x="953" y="567" />
              <mxPoint x="953" y="485" />
            </Array>
            <mxPoint x="932" y="485" as="targetPoint" />
          </mxGeometry>
        </mxCell>
        <mxCell id="deR8jdC6dyFpVtyxwruU-120" value="" style="shape=image;verticalLabelPosition=bottom;labelBackgroundColor=none;verticalAlign=top;aspect=fixed;imageAspect=0;image=data:image/svg+xml,PHN2ZyB4bWxuczpjYz0iaHR0cDovL2NyZWF0aXZlY29tbW9ucy5vcmcvbnMjIiB4bWxuczpkYz0iaHR0cDovL3B1cmwub3JnL2RjL2VsZW1lbnRzLzEuMS8iIHhtbG5zOmlua3NjYXBlPSJodHRwOi8vd3d3Lmlua3NjYXBlLm9yZy9uYW1lc3BhY2VzL2lua3NjYXBlIiB4bWxuczpyZGY9Imh0dHA6Ly93d3cudzMub3JnLzE5OTkvMDIvMjItcmRmLXN5bnRheC1ucyMiIHhtbG5zOnNvZGlwb2RpPSJodHRwOi8vc29kaXBvZGkuc291cmNlZm9yZ2UubmV0L0RURC9zb2RpcG9kaS0wLmR0ZCIgeG1sbnM6c3ZnPSJodHRwOi8vd3d3LnczLm9yZy8yMDAwL3N2ZyIgeG1sbnM9Imh0dHA6Ly93d3cudzMub3JnLzIwMDAvc3ZnIiB4bWxuczp4bGluaz0iaHR0cDovL3d3dy53My5vcmcvMTk5OS94bGluayIgdmVyc2lvbj0iMS4xIiBpZD0ic3ZnMjQzMyIgaW5rc2NhcGU6dmVyc2lvbj0iMC45Mi4zICgyNDA1NTQ2LCAyMDE4LTAzLTExKSIgc29kaXBvZGk6ZG9jbmFtZT0iZGV2aWNlX2FuZHJvaWQuc3ZnIiB4PSIwcHgiIHk9IjBweCIgdmlld0JveD0iMCAwIDI4LjY5IDU5LjIiIHN0eWxlPSJlbmFibGUtYmFja2dyb3VuZDpuZXcgMCAwIDI4LjY5IDU5LjI7IiB4bWw6c3BhY2U9InByZXNlcnZlIj4mI3hhOzxzb2RpcG9kaTpuYW1lZHZpZXcgYm9yZGVyY29sb3I9IiM2NjY2NjYiIGJvcmRlcm9wYWNpdHk9IjEiIGZpdC1tYXJnaW4tYm90dG9tPSIwIiBmaXQtbWFyZ2luLWxlZnQ9IjAiIGZpdC1tYXJnaW4tcmlnaHQ9IjAiIGZpdC1tYXJnaW4tdG9wPSIwIiBncmlkdG9sZXJhbmNlPSIxMCIgZ3VpZGV0b2xlcmFuY2U9IjEwIiBpZD0ibmFtZWR2aWV3MjQzNSIgaW5rc2NhcGU6Y3VycmVudC1sYXllcj0ic3ZnMjQzMyIgaW5rc2NhcGU6Y3g9IjE5LjEyODg2NCIgaW5rc2NhcGU6Y3k9IjM5LjQ2OTkyOCIgaW5rc2NhcGU6cGFnZW9wYWNpdHk9IjAiIGlua3NjYXBlOnBhZ2VzaGFkb3c9IjIiIGlua3NjYXBlOndpbmRvdy1oZWlnaHQ9IjEwMTciIGlua3NjYXBlOndpbmRvdy1tYXhpbWl6ZWQ9IjEiIGlua3NjYXBlOndpbmRvdy13aWR0aD0iMTkyMCIgaW5rc2NhcGU6d2luZG93LXg9Ii04IiBpbmtzY2FwZTp3aW5kb3cteT0iLTgiIGlua3NjYXBlOnpvb209IjEwLjk4NDg1MSIgb2JqZWN0dG9sZXJhbmNlPSIxMCIgcGFnZWNvbG9yPSIjZmZmZmZmIiBzaG93Z3JpZD0iZmFsc2UiPiYjeGE7CTwvc29kaXBvZGk6bmFtZWR2aWV3PiYjeGE7PGcgaWQ9ImcyNDMxIiB0cmFuc2Zvcm09InRyYW5zbGF0ZSgwLC0zLjM2MzU5OTFlLTUpIj4mI3hhOwk8dGl0bGUgaWQ9InRpdGxlMjM3NyI+UGFnZS0xPC90aXRsZT4mI3hhOwk8ZyBpZD0iZ3JvdXAzNDgxLTEiPiYjeGE7CQk8dGl0bGUgaWQ9InRpdGxlMjM3OSI+RGV2aWNlOiBBbmRyb2lkPC90aXRsZT4mI3hhOwkJPGcgaWQ9InNoYXBlMzQ4Mi0yIj4mI3hhOwkJCTx0aXRsZSBpZD0idGl0bGUyMzgxIj5TaGVldC4zNDgyPC90aXRsZT4mI3hhOwkJCTxwYXRoIGlkPSJwYXRoMjM4MyIgaW5rc2NhcGU6Y29ubmVjdG9yLWN1cnZhdHVyZT0iMCIgc3R5bGU9ImZpbGw6IzNGNTc2NTsiIGQ9Ik0yOC42OSw1NS4wNGMwLDIuMjctMS44OSw0LjE2LTQuMjIsNC4xNiAgICAgYy0yMC4yOCwwLTIwLjI4LDAtMjAuMjgsMEMxLjg1LDU5LjIsMCw1Ny4zMSwwLDU1LjA0QzAsNC4yMiwwLDQuMjIsMCw0LjIyQzAsMS44OSwxLjg1LDAsNC4xOSwwYzIwLjI4LDAsMjAuMjgsMCwyMC4yOCwwICAgICBjMi4zMywwLDQuMjIsMS44OSw0LjIyLDQuMjJWNTUuMDR6Ii8+JiN4YTsJCTwvZz4mI3hhOwkJPGcgaWQ9InNoYXBlMzQ4My00IiB0cmFuc2Zvcm09InRyYW5zbGF0ZSg3LjI3NDYzLC0zMS44MTgyKSI+JiN4YTsJCQk8dGl0bGUgaWQ9InRpdGxlMjM4NiI+U2hlZXQuMzQ4MzwvdGl0bGU+JiN4YTsJCQk8ZGVzYyBpZD0iZGVzYzIzODgiPlY8L2Rlc2M+JiN4YTsJCQk8cGF0aCBpZD0icGF0aDIzOTAiIGlua3NjYXBlOmNvbm5lY3Rvci1jdXJ2YXR1cmU9IjAiIHN0eWxlPSJmaWxsOm5vbmU7IiBkPSJNMTYuNDEsMzcuNjJIMFY1OS4yaDE2LjQxVjM3LjYyIi8+JiN4YTsJCQk8dGV4dCBpZD0idGV4dDIzOTIiIHRyYW5zZm9ybT0ibWF0cml4KDEgMCAwIDEgMy4xIDUzLjgpIiBzdHlsZT0iZmlsbDojNTA1MDUwOyBmb250LWZhbWlseTonQ2FsaWJyaSc7IGZvbnQtc2l6ZToxNy45NzQycHg7Ij5WPC90ZXh0PiYjeGE7CQk8L2c+JiN4YTsJCTxnIGlkPSJzaGFwZTM0ODQtOCIgdHJhbnNmb3JtPSJ0cmFuc2xhdGUoMS41NjA3MiwtOC4xNDgzMikiPiYjeGE7CQkJPHRpdGxlIGlkPSJ0aXRsZTIzOTUiPlNoZWV0LjM0ODQ8L3RpdGxlPiYjeGE7CQkJPHBhdGggaWQ9InBhdGgyMzk3IiBpbmtzY2FwZTpjb25uZWN0b3ItY3VydmF0dXJlPSIwIiBzdHlsZT0iZmlsbDojOEQ5RkIwOyIgZD0iTTAsMTQuNjJWNTkuMmgyNS41N1YxNC42MkgweiIvPiYjeGE7CQk8L2c+JiN4YTsJCTxnIGlkPSJzaGFwZTM0ODUtMTAiIHRyYW5zZm9ybT0idHJhbnNsYXRlKDYuMjQyODksLTU1LjQ4MDUpIj4mI3hhOwkJCTx0aXRsZSBpZD0idGl0bGUyNDAwIj5TaGVldC4zNDg1PC90aXRsZT4mI3hhOwkJCTxwYXRoIGlkPSJwYXRoMjQwMiIgaW5rc2NhcGU6Y29ubmVjdG9yLWN1cnZhdHVyZT0iMCIgc3R5bGU9ImZpbGw6IzhFOUZCMDsiIGQ9Ik0xMi45Nyw1OC42YzAsMC4zMy0wLjMsMC42LTAuNjMsMC42ICAgICBjLTExLjcsMC0xMS43LDAtMTEuNywwQzAuMyw1OS4yLDAsNTguOTMsMCw1OC42bDAsMEMwLDU4LjI3LDAuMyw1OCwwLjY0LDU4YzExLjcsMCwxMS43LDAsMTEuNywwICAgICBDMTIuNjcsNTgsMTIuOTcsNTguMjcsMTIuOTcsNTguNnoiLz4mI3hhOwkJPC9nPiYjeGE7CQk8ZyBpZD0ic2hhcGUzNDg2LTEyIiB0cmFuc2Zvcm09InRyYW5zbGF0ZSgyMS4wMDk3LC01NS4zNjA2KSI+JiN4YTsJCQk8dGl0bGUgaWQ9InRpdGxlMjQwNSI+U2hlZXQuMzQ4NjwvdGl0bGU+JiN4YTsJCQk8cGF0aCBpZD0icGF0aDI0MDciIGlua3NjYXBlOmNvbm5lY3Rvci1jdXJ2YXR1cmU9IjAiIHN0eWxlPSJmaWxsOiM4RTlGQjA7IiBkPSJNMCw1OC40OGMwLTAuNCwwLjMyLTAuNzIsMC43Mi0wLjcyICAgICBzMC43MiwwLjMyLDAuNzIsMC43MmMwLDAuMzktMC4zMiwwLjcyLTAuNzIsMC43MlMwLDU4Ljg3LDAsNTguNDh6Ii8+JiN4YTsJCTwvZz4mI3hhOwkJPGcgaWQ9InNoYXBlMzQ4Ny0xNCIgdHJhbnNmb3JtPSJ0cmFuc2xhdGUoNi4yNDI4OSwtMi4wMzcwOCkiPiYjeGE7CQkJPHRpdGxlIGlkPSJ0aXRsZTI0MTAiPlNoZWV0LjM0ODc8L3RpdGxlPiYjeGE7CQkJPHBhdGggaWQ9InBhdGgyNDEyIiBpbmtzY2FwZTpjb25uZWN0b3ItY3VydmF0dXJlPSIwIiBzdHlsZT0iZmlsbDojOEU5RkIwOyIgZD0iTTE2LjIxLDU4LjY5YzAsMC4zLTAuMiwwLjUxLTAuNDksMC41MSAgICAgYy0xNS4xOCwwLTE1LjE4LDAtMTUuMTgsMEMwLjI1LDU5LjIsMCw1OC45OSwwLDU4LjY5bDAsMGMwLTAuMzEsMC4yNS0wLjU3LDAuNTQtMC41N2MxNS4xOCwwLDE1LjE4LDAsMTUuMTgsMCAgICAgQzE2LjAxLDU4LjEyLDE2LjIxLDU4LjM4LDE2LjIxLDU4LjY5eiIvPiYjeGE7CQk8L2c+JiN4YTsJCTxnIGlkPSJzaGFwZTM0ODgtMTYiIHRyYW5zZm9ybT0idHJhbnNsYXRlKDcuOTIzNjcsLTI2Ljg0MTUpIj4mI3hhOwkJCTx0aXRsZSBpZD0idGl0bGUyNDE1Ij5TaGVldC4zNDg4PC90aXRsZT4mI3hhOwkJCTxwYXRoIGlkPSJwYXRoMjQxNyIgaW5rc2NhcGU6Y29ubmVjdG9yLWN1cnZhdHVyZT0iMCIgc3R5bGU9ImZpbGw6I0ZGRkZGRjsiIGQ9Ik0xMS45NCw1My42OGMtMC41LDAtMC45MiwwLjQyLTAuOTIsMC45NSAgICAgYzAsMy42MywwLDMuNjMsMCwzLjYzYzAsMC41MiwwLjQyLDAuOTQsMC45MiwwLjk0YzAuNDksMCwwLjkxLTAuNDIsMC45MS0wLjk0YzAtMy42MywwLTMuNjMsMC0zLjYzICAgICBDMTIuODUsNTQuMSwxMi40Myw1My42OCwxMS45NCw1My42OHogTTAuOTIsNTMuNjhDMC40Miw1My42OCwwLDU0LjEsMCw1NC42M2MwLDMuNjMsMCwzLjYzLDAsMy42M2MwLDAuNTIsMC40MiwwLjk0LDAuOTIsMC45NCAgICAgczAuOTEtMC40MiwwLjkxLTAuOTRjMC0zLjYzLDAtMy42MywwLTMuNjNDMS44Myw1NC4xLDEuNDIsNTMuNjgsMC45Miw1My42OHoiLz4mI3hhOwkJPC9nPiYjeGE7CQk8ZyBpZD0ic2hhcGUzNDg5LTE4IiB0cmFuc2Zvcm09InRyYW5zbGF0ZSgxMC4zMjQ4LC0yMi4wNDg0KSI+JiN4YTsJCQk8dGl0bGUgaWQ9InRpdGxlMjQyMCI+U2hlZXQuMzQ4OTwvdGl0bGU+JiN4YTsJCQk8cGF0aCBpZD0icGF0aDI0MjIiIGlua3NjYXBlOmNvbm5lY3Rvci1jdXJ2YXR1cmU9IjAiIHN0eWxlPSJmaWxsOiNGRkZGRkY7IiBkPSJNMCw0OC44OWMwLDYuNjQsMCw2LjY0LDAsNi42NCAgICAgYzAsMC40LDAuMzIsMC43MSwwLjcxLDAuNzFjMC44MiwwLDAuODIsMCwwLjgyLDBjMCwyLjAyLDAsMi4wMiwwLDIuMDJjMCwwLjUyLDAuNDIsMC45NCwwLjkyLDAuOTRjMC41MSwwLDAuOTMtMC40MiwwLjkzLTAuOTQgICAgIGMwLTIuMDIsMC0yLjAyLDAtMi4wMmMxLjQxLDAsMS40MSwwLDEuNDEsMGMwLDIuMDIsMCwyLjAyLDAsMi4wMmMwLDAuNTIsMC40MiwwLjk0LDAuOTMsMC45NGMwLjUsMCwwLjkyLTAuNDIsMC45Mi0wLjk0ICAgICBjMC0yLjAyLDAtMi4wMiwwLTIuMDJjMC44MiwwLDAuODIsMCwwLjgyLDBjMC40LDAsMC43LTAuMzEsMC43LTAuNzFjMC02LjY0LDAtNi42NCwwLTYuNjRIMHoiLz4mI3hhOwkJPC9nPiYjeGE7CQk8ZyBpZD0ic2hhcGUzNDkwLTIwIiB0cmFuc2Zvcm09InRyYW5zbGF0ZSgxMC4zMjQ4LC0zMi45NTI4KSI+JiN4YTsJCQk8dGl0bGUgaWQ9InRpdGxlMjQyNSI+U2hlZXQuMzQ5MDwvdGl0bGU+JiN4YTsJCQk8cGF0aCBpZD0icGF0aDI0MjciIGlua3NjYXBlOmNvbm5lY3Rvci1jdXJ2YXR1cmU9IjAiIHN0eWxlPSJmaWxsOiNGRkZGRkY7IiBkPSJNNS45NCw1Ni40MWMwLjc1LTEuMDYsMC43NS0xLjA2LDAuNzUtMS4wNiAgICAgYzAuMDQtMC4wNiwwLjAyLTAuMTUtMC4wMy0wLjE4Yy0wLjA2LTAuMDUtMC4xNC0wLjAzLTAuMTgsMC4wM0M1LjcsNTYuMzMsNS43LDU2LjMzLDUuNyw1Ni4zM0M1LjE4LDU2LjEyLDQuNjIsNTYsNC4wMiw1NiAgICAgYy0wLjU5LDAtMS4xNSwwLjEyLTEuNjYsMC4zM0MxLjU3LDU1LjIsMS41Nyw1NS4yLDEuNTcsNTUuMmMtMC4wNC0wLjA2LTAuMTItMC4wOC0wLjE4LTAuMDNjLTAuMDUsMC4wMy0wLjA3LDAuMTItMC4wMiwwLjE4ICAgICBjMC43NCwxLjA2LDAuNzQsMS4wNiwwLjc0LDEuMDZDMC45Myw1Ni45NiwwLjExLDU4LDAsNTkuMmM4LjA0LDAsOC4wNCwwLDguMDQsMEM3Ljk1LDU4LDcuMTIsNTYuOTYsNS45NCw1Ni40MXogTTIuMzMsNTguMSAgICAgYy0wLjI0LDAtMC40NS0wLjIxLTAuNDUtMC40NWMwLTAuMjIsMC4yMS0wLjQyLDAuNDUtMC40MmMwLjI1LDAsMC40NCwwLjIsMC40NCwwLjQyQzIuNzcsNTcuODksMi41OCw1OC4xLDIuMzMsNTguMXogTTUuNzgsNTguMSAgICAgYy0wLjI1LDAtMC40NC0wLjIxLTAuNDQtMC40NWMwLTAuMjIsMC4xOS0wLjQyLDAuNDQtMC40MnMwLjQ2LDAuMiwwLjQ2LDAuNDJDNi4yNCw1Ny44OSw2LjAzLDU4LjEsNS43OCw1OC4xeiIvPiYjeGE7CQk8L2c+JiN4YTsJPC9nPiYjeGE7PC9nPiYjeGE7PC9zdmc+;" parent="1" vertex="1">
          <mxGeometry x="-78.53" y="144.5" width="29" height="59" as="geometry" />
        </mxCell>
        <mxCell id="deR8jdC6dyFpVtyxwruU-121" value="&lt;p style=&quot;margin-top: 0pt ; margin-bottom: 0pt ; margin-left: 0in ; direction: ltr ; unicode-bidi: embed ; word-break: normal&quot;&gt;&lt;font face=&quot;calibri&quot; size=&quot;1&quot;&gt;&lt;b style=&quot;font-size: 20px&quot;&gt;Azure Cloud Infraestructura&lt;/b&gt;&lt;/font&gt;&lt;/p&gt;" style="text;html=1;strokeColor=none;fillColor=none;align=center;verticalAlign=middle;whiteSpace=wrap;rounded=0;dashed=1;" parent="1" vertex="1">
          <mxGeometry x="289" y="-98" width="174.64" height="20" as="geometry" />
        </mxCell>
        <mxCell id="deR8jdC6dyFpVtyxwruU-122" value="&lt;p style=&quot;margin-top: 0pt ; margin-bottom: 0pt ; margin-left: 0in ; direction: ltr ; unicode-bidi: embed ; word-break: normal&quot;&gt;&lt;font face=&quot;calibri&quot; size=&quot;1&quot;&gt;&lt;b style=&quot;font-size: 20px&quot;&gt;Canal Consumidor&lt;/b&gt;&lt;/font&gt;&lt;/p&gt;" style="text;html=1;strokeColor=none;fillColor=none;align=center;verticalAlign=middle;whiteSpace=wrap;rounded=0;dashed=1;" parent="1" vertex="1">
          <mxGeometry x="-136" y="-93" width="174.64" height="20" as="geometry" />
        </mxCell>
        <mxCell id="deR8jdC6dyFpVtyxwruU-129" value="1.- Flujo autenticacion (componente de seguridad que valide y devuelva un token)" style="text;html=1;strokeColor=none;fillColor=none;align=center;verticalAlign=middle;whiteSpace=wrap;rounded=0;" parent="1" vertex="1">
          <mxGeometry x="264" y="-38" width="476" height="30" as="geometry" />
        </mxCell>
        <mxCell id="deR8jdC6dyFpVtyxwruU-130" value="2.- Flujo autorizacion (consultar empleasod fabrica + token)" style="text;html=1;strokeColor=none;fillColor=none;align=center;verticalAlign=middle;whiteSpace=wrap;rounded=0;" parent="1" vertex="1">
          <mxGeometry x="278" y="-8" width="334" height="30" as="geometry" />
        </mxCell>
        <mxCell id="deR8jdC6dyFpVtyxwruU-138" value="" style="shape=image;verticalLabelPosition=bottom;labelBackgroundColor=default;verticalAlign=top;aspect=fixed;imageAspect=0;image=https://helios-i.mashable.com/imagery/articles/06YkoiA6HHEVTWDiXFiFsw4/hero-image.fill.size_1248x702.v1658745007.png;" parent="1" vertex="1">
          <mxGeometry x="-108.36999999999989" y="243" width="88.74" height="50" as="geometry" />
        </mxCell>
        <mxCell id="deR8jdC6dyFpVtyxwruU-140" value="&lt;p style=&quot;margin-top: 0pt ; margin-bottom: 0pt ; margin-left: 0in ; direction: ltr ; unicode-bidi: embed ; word-break: normal&quot;&gt;&lt;font face=&quot;calibri&quot;&gt;&lt;span style=&quot;font-size: 21px;&quot;&gt;&lt;b&gt;Servicios Externos&lt;/b&gt;&lt;/span&gt;&lt;/font&gt;&lt;/p&gt;" style="text;html=1;strokeColor=none;fillColor=none;align=center;verticalAlign=middle;whiteSpace=wrap;rounded=0;dashed=1;" parent="1" vertex="1">
          <mxGeometry x="798" y="-93" width="240" height="20" as="geometry" />
        </mxCell>
        <mxCell id="deR8jdC6dyFpVtyxwruU-141" value="" style="shape=image;verticalLabelPosition=bottom;labelBackgroundColor=default;verticalAlign=top;aspect=fixed;imageAspect=0;image=https://i.blogs.es/16b956/gmail-nuevo-logo-google-workspace/1366_2000.jpg;" parent="1" vertex="1">
          <mxGeometry x="806" y="443.38" width="130" height="86.62" as="geometry" />
        </mxCell>
        <mxCell id="deR8jdC6dyFpVtyxwruU-143" value="" style="shape=image;verticalLabelPosition=bottom;labelBackgroundColor=default;verticalAlign=top;aspect=fixed;imageAspect=0;image=https://centraldeayuda.pagoefectivo.pe/hc/article_attachments/360013971120/pagoefectivo-logo.png;" parent="1" vertex="1">
          <mxGeometry x="816.5" y="328" width="253" height="70.35" as="geometry" />
        </mxCell>
        <mxCell id="ZOZwDmsyJL7v8vvXt0vk-3" value="" style="shape=image;verticalLabelPosition=bottom;labelBackgroundColor=default;verticalAlign=top;aspect=fixed;imageAspect=0;image=https://enviotodo.pe/wp-content/uploads/2020/01/c2cabb76-30ee-492b-8a19-6a068dc74ff4.png;" parent="1" vertex="1">
          <mxGeometry x="827" y="167" width="232" height="90.11" as="geometry" />
        </mxCell>
        <mxCell id="ZwlUEVx7gkROB-G7AdeV-17" style="edgeStyle=orthogonalEdgeStyle;rounded=0;orthogonalLoop=1;jettySize=auto;html=1;fontSize=11;" parent="1" source="ZwlUEVx7gkROB-G7AdeV-16" target="ZOZwDmsyJL7v8vvXt0vk-3" edge="1">
          <mxGeometry relative="1" as="geometry" />
        </mxCell>
        <mxCell id="ZwlUEVx7gkROB-G7AdeV-18" style="edgeStyle=orthogonalEdgeStyle;rounded=0;orthogonalLoop=1;jettySize=auto;html=1;fontSize=11;entryX=0.5;entryY=0;entryDx=0;entryDy=0;" parent="1" source="ZwlUEVx7gkROB-G7AdeV-16" target="deR8jdC6dyFpVtyxwruU-143" edge="1">
          <mxGeometry relative="1" as="geometry" />
        </mxCell>
      </root>
    </mxGraphModel>
  </diagram>
  <diagram id="XYSs4M-ALEvxooobOXvN" name="Servicios Candidatos">
    <mxGraphModel grid="1" page="1" gridSize="10" guides="1" tooltips="1" connect="1" arrows="1" fold="1" pageScale="1" pageWidth="827" pageHeight="1169" math="0" shadow="0">
      <root>
        <mxCell id="0" />
        <mxCell id="1" parent="0" />
        <mxCell id="8FZMikQaVZvDrJXvUN6d-2" value="Core 1: Reserva de Cita&#xa;&#xa;&#xa;MÃ©dicos&#xa;QUITAR POST: Registrar nuevo mÃ©dico, junto con su informaciÃ³n&#xa;GET: Consultar lista de mÃ©dicos&#xa;GET: Consultar informaciÃ³n de mÃ©dico por nÃºmero de licencia&#xa;QUITAR PUT: Actualizar informaciÃ³n de mÃ©dico por nÃºmero de licencia&#xa;QUITAR DELETE: Eliminar mÃ©dico por nÃºmero de licencia&#xa;&#xa;&#xa;Especialidades&#xa;QUITAR POST: Registrar nueva especialidad&#xa;GET: Consultar lista de especialidades&#xa;GET: Consultar especialidad por nÃºmero de categorÃ­a&#xa;QUITAR PUT: Actualizar especialidad por nÃºmero de categorÃ­a&#xa;QUITAR DELETE: Eliminar especialidad por nÃºmero de categorÃ­a&#xa;&#xa;&#xa;Horarios&#xa;QUITAR POST: Crear horario de atenciÃ³n para un mÃ©dico&#xa;GET: Consultar horarios de atenciÃ³n de un mÃ©dico&#xa;PUT: Actualizar horario de atenciÃ³n por identificador de horario&#xa;QUITAR DELETE: Eliminar horario de atenciÃ³n por identificador de horario&#xa;&#xa;&#xa;Reserva&#xa;POST: Registrar la solicitud de reserva de cita mÃ©dica&#xa;GET: Consultar reserva por cÃ³digo de reserva&#xa;PUT: Actualizar reserva por cÃ³digo de reserva&#xa;DELETE: Cancelar reserva por cÃ³digo de reserva" style="text;whiteSpace=wrap;" vertex="1" parent="1">
          <mxGeometry x="-360" y="320" width="380" height="480" as="geometry" />
        </mxCell>
        <mxCell id="8FZMikQaVZvDrJXvUN6d-3" value="Core 2: Pago en lÃ­nea&lt;br&gt;&lt;br&gt;Registro de cliente/usuario&lt;br&gt;POST: Registrar nuevo cliente, junto con su informaciÃ³n&lt;br&gt;GET: Consultar lista de clientes&lt;br&gt;GET: Consultar informaciÃ³n de cliente por nÃºmero de cliente&lt;br&gt;PUT: Actualizar informaciÃ³n de cliente por nÃºmero de cliente&lt;br&gt;QUITAR DELETE: Eliminar cliente por nÃºmero de cliente&lt;br&gt;&lt;br&gt;Pago mediante YAPE&lt;br&gt;POST: Iniciar pago mediante YAPE asociado a una cita&lt;br&gt;GET: Consultar estado del pago mediante YAPE por cÃ³digo de operaciÃ³n&lt;br&gt;PUT: Validar el pago mediante YAPE por cÃ³digo de operaciÃ³n&lt;br&gt;&lt;br&gt;Pago mediante Pagoefectivo&lt;br&gt;POST: Iniciar pago mediante Pagoefectivo asociado a una cita&lt;br&gt;GET: Consultar estado del pago mediante Pagoefectivo por cÃ³digo de operaciÃ³n&lt;br&gt;PUT: Validar el pago mediante Pagoefectivo por cÃ³digo de operaciÃ³n" style="text;whiteSpace=wrap;html=1;" vertex="1" parent="1">
          <mxGeometry x="130" y="410" width="450" height="280" as="geometry" />
        </mxCell>
        <mxCell id="iSaZGojNb5bffb1V3pfC-2" value="Core 1: Reserva de Cita&#xa;&#xa;&#xa;MÃ©dicos&#xa;GET: Consultar lista de mÃ©dicos&#xa;GET: Consultar informaciÃ³n de mÃ©dico por nÃºmero de licencia&#xa;&#xa;Especialidades&#xa;GET: Consultar lista de especialidades&#xa;GET: Consultar especialidad por nÃºmero de categorÃ­a&#xa;&#xa;Horarios&#xa;GET: Consultar horarios de atenciÃ³n de un mÃ©dico&#xa;PUT: Actualizar horario de atenciÃ³n por identificador de horario&#xa;&#xa;Reserva&#xa;POST: Registrar la solicitud de reserva de cita mÃ©dica&#xa;GET: Consultar reserva por cÃ³digo de reserva&#xa;PUT: Actualizar reserva por cÃ³digo de reserva&#xa;DELETE: Cancelar reserva por cÃ³digo de reserva" style="text;whiteSpace=wrap;" vertex="1" parent="1">
          <mxGeometry x="-450" y="880" width="340" height="300" as="geometry" />
        </mxCell>
        <mxCell id="iSaZGojNb5bffb1V3pfC-3" value="Core 2: Pago de la reserva&lt;br&gt;&lt;br&gt;Pago mediante PAYPAL&lt;br&gt;1 POST: Iniciar la orden a la API&lt;br&gt;&amp;nbsp;5 GET: Consultar los detalles de la orden&lt;br&gt;&amp;nbsp;6*PUT: Actualizar la orden&lt;br&gt;&amp;nbsp;4 POST: Confirmar orden&lt;br&gt;&amp;nbsp;2 POST: Autorizar el pago de orden&lt;br&gt;&amp;nbsp;3 POST: Capturar pago de la orden&lt;br&gt;&lt;br&gt;Pago mediante PagoEfectivo&lt;br&gt;POST: Autorizar generaciÃ³n de CIP&lt;br&gt;POST: Generar CIP" style="text;whiteSpace=wrap;html=1;" vertex="1" parent="1">
          <mxGeometry x="10" y="880" width="450" height="280" as="geometry" />
        </mxCell>
      </root>
    </mxGraphModel>
  </diagram>
  <diagram id="pBdn6nZ7yOjoUsbudRqA" name="Arquitectura de Servicios">
    <mxGraphModel grid="1" page="1" gridSize="10" guides="1" tooltips="1" connect="1" arrows="1" fold="1" pageScale="1" pageWidth="827" pageHeight="1169" background="none" math="0" shadow="0">
      <root>
        <mxCell id="0" />
        <mxCell id="1" parent="0" />
        <mxCell id="rT_oUZzS3V4J9xVRkxf5-1" value="AplicaciÃ³n" style="rounded=1;whiteSpace=wrap;html=1;" vertex="1" parent="1">
          <mxGeometry x="-190" y="400" width="120" height="60" as="geometry" />
        </mxCell>
        <mxCell id="rT_oUZzS3V4J9xVRkxf5-4" value="APP Canal Consumidor" style="swimlane;strokeColor=#FFFF33;strokeWidth=2;" vertex="1" parent="1">
          <mxGeometry x="-200" y="1069.9999999999998" width="170" height="210.68" as="geometry">
            <mxRectangle x="-143" y="2530.16" width="170" height="30" as="alternateBounds" />
          </mxGeometry>
        </mxCell>
        <mxCell id="rT_oUZzS3V4J9xVRkxf5-5" value="" style="sketch=0;aspect=fixed;html=1;points=[];align=center;image;fontSize=12;image=img/lib/mscae/Managed_Desktop.svg;" vertex="1" parent="rT_oUZzS3V4J9xVRkxf5-4">
          <mxGeometry x="60" y="50.67999999999995" width="50" height="36" as="geometry" />
        </mxCell>
        <mxCell id="rT_oUZzS3V4J9xVRkxf5-6" value="" style="sketch=0;aspect=fixed;html=1;points=[];align=center;image;fontSize=12;image=img/lib/mscae/Devices_Groups.svg;" vertex="1" parent="rT_oUZzS3V4J9xVRkxf5-4">
          <mxGeometry x="60" y="134.65999999999997" width="50" height="50" as="geometry" />
        </mxCell>
        <mxCell id="rT_oUZzS3V4J9xVRkxf5-7" value="- Ocp-Apim-Subscription-Key&lt;br style=&quot;border-color: var(--border-color);&quot;&gt;- Authorization bearer (token que se envia en la cabecera)" style="verticalLabelPosition=bottom;aspect=fixed;html=1;verticalAlign=top;strokeColor=none;align=center;outlineConnect=0;shape=mxgraph.citrix.role_security;fillColor=#CCCCCC;gradientColor=#000000;gradientDirection=south;whiteSpace=wrap;" vertex="1" parent="1">
          <mxGeometry x="40" y="880.9999999999999" width="38" height="38" as="geometry" />
        </mxCell>
        <mxCell id="rT_oUZzS3V4J9xVRkxf5-8" value="- GET: /&lt;font color=&quot;#ff0000&quot;&gt;ux&lt;/font&gt;-clientes/health/&lt;font color=&quot;#ff0000&quot;&gt;servicio-al-cliente/v1&lt;/font&gt;/nombre-operacion" style="edgeLabel;html=1;align=center;verticalAlign=middle;resizable=0;points=[];fontColor=#000000;" connectable="0" vertex="1" parent="1">
          <mxGeometry x="826.9979124315073" y="649.99883105456" as="geometry" />
        </mxCell>
        <mxCell id="rT_oUZzS3V4J9xVRkxf5-9" value="- GET: /&lt;font color=&quot;#ff0000&quot;&gt;ux&lt;/font&gt;-pagos/health/&lt;font color=&quot;#ff0000&quot;&gt;servicio-al-cliente/v1&lt;/font&gt;/nombre-operacion" style="edgeLabel;html=1;align=center;verticalAlign=middle;resizable=0;points=[];fontColor=#000000;" connectable="0" vertex="1" parent="1">
          <mxGeometry x="776.9979124315073" y="679.99883105456" as="geometry" />
        </mxCell>
        <mxCell id="rT_oUZzS3V4J9xVRkxf5-11" value="API CANAL&lt;br&gt;&lt;i&gt;&lt;font color=&quot;#3333ff&quot;&gt;SM-HEALTH&lt;/font&gt;&lt;/i&gt;" style="rounded=1;whiteSpace=wrap;html=1;" vertex="1" parent="1">
          <mxGeometry x="760" y="380" width="120" height="60" as="geometry" />
        </mxCell>
        <mxCell id="rT_oUZzS3V4J9xVRkxf5-12" value="ALMACENAMIENTO" style="rounded=1;whiteSpace=wrap;html=1;" vertex="1" parent="1">
          <mxGeometry x="1654" y="360" width="120" height="60" as="geometry" />
        </mxCell>
        <mxCell id="mPwONwSeZXPIwK1l72h_-1" value="MYSQL_SM_HEALTH" style="aspect=fixed;html=1;points=[];align=center;image;fontSize=12;image=img/lib/azure2/databases/SQL_Database.svg;strokeColor=#000000;strokeWidth=2;imageBorder=#FFFF33;" vertex="1" parent="1">
          <mxGeometry x="1630" y="880" width="48" height="64" as="geometry" />
        </mxCell>
        <mxCell id="mPwONwSeZXPIwK1l72h_-2" value="- GET: /&lt;font color=&quot;#ff0000&quot;&gt;ux&lt;/font&gt;-mÃ©dicos/health/&lt;font color=&quot;#ff0000&quot;&gt;servicio-al-cliente/v1&lt;/font&gt;/listar-mÃ©dicos" style="edgeLabel;html=1;align=center;verticalAlign=middle;resizable=0;points=[];fontColor=#000000;" connectable="0" vertex="1" parent="1">
          <mxGeometry x="831.9979124315073" y="810.99883105456" as="geometry" />
        </mxCell>
        <mxCell id="mPwONwSeZXPIwK1l72h_-3" style="edgeStyle=orthogonalEdgeStyle;rounded=0;orthogonalLoop=1;jettySize=auto;html=1;" edge="1" parent="1" source="mPwONwSeZXPIwK1l72h_-5" target="mPwONwSeZXPIwK1l72h_-1">
          <mxGeometry relative="1" as="geometry" />
        </mxCell>
        <mxCell id="mPwONwSeZXPIwK1l72h_-4" value="- lista de mÃ©dicos" style="edgeLabel;html=1;align=center;verticalAlign=middle;resizable=0;points=[];" connectable="0" vertex="1" parent="mPwONwSeZXPIwK1l72h_-3">
          <mxGeometry x="-0.1233" y="2" relative="1" as="geometry">
            <mxPoint as="offset" />
          </mxGeometry>
        </mxCell>
        <mxCell id="mPwONwSeZXPIwK1l72h_-5" value="API UX MEDICOS" style="shape=image;verticalLabelPosition=bottom;labelBackgroundColor=#FFFFFF;verticalAlign=top;aspect=fixed;imageAspect=0;image=data:image/png,iVBORw0KGgoAAAANSUhEUgAAAEcAAABTCAYAAADN9xqSAAAWgUlEQVR4Ae2cC1hUVdfHEczXt7yVClaKpGmUKZSZVBaaSVmiZKWYlrz1ipj3VDAtvN/iYmqppEmmiKaFIlcBUUAQERCQO4LIHYHhMswwXOb/PWuP58hhZpjh+lTvx/OsZ885M3POPj/+a+111t5ndPD/f2oJ6Kh95y/0hpeXFxw3ber2Hv2l4RAUExMTTJ9hiVGjn0N8fHy3AvpLwlFAMcUHljMREn4dBRVibNqxGytXrvrfhcNBsZw5E1cjo1FWLUVJpYTBiU3JguHw4ZBKpd0G6C+hHAbF1BSWM2fhWnQMqiQyVIjrBHDuldVg1uyP4enp+b8Bh6CYmppi5qxZiI6JRa2sATXSerVwPL188dZb5v9sOByUWbOsEBMbC1lDI6T1jRrh5JRWY5jhcOTk5HQLoG51Kw6KlZUVYmPj0NDYhPrGpjbBWbtxMxwc1v+z4Lz33nsgKHFx8WiSy9HYJG8XnMiEdBgadk9g7hblUBC1trZm/225HB2Ck1lUCYvpM0Aq7Oq/LodDQ6+RkRGKioo6Dc6BX06wke1vD2fVqlXYu3ev4Do64laknJSCCujrG/DABQfvxI0uVQ6l+2ZmZkqJW2fAWbLaocvvt7oUzssTJiM0NFTpfynvQEDmlBMQGc8Cs9LBO3FHl8FZt/UULK0UQVhVf9s7WnFwEu+V480p78Df31/V4TtlX5fAKS2XYpDBwyCsqqedAcfF7XiXBuYugTNlxko4u7iqYsLvoyG9PUlgc+VEpeVjqKFhlwVmreFIa2vheegQNi1fziwnNZW/0OYvzvvHY4TxRKUg3Pwz3OuOwonNuY9Pv1gMV9fW/xHc+draagUnPiICxsOGYc6kSdjw4YfMjAwMYGNpiZaQhowwh7XjaYRmlkAkkbH+pGek4SOHLMjqhOUGcq223j40Vw7BORMYwQphbb1wbT6vEc4xJydMNDbGLWcXVJw+g4o//mRt+YkTOGxrCwZpxgwGyWH7KRiafIwtfkm8FVVJYbPpFmy+i4Z3YLigTzRqdRROdFYJJrw2SeWoKDhZOzZahZMaFwfTkSNRfNIDlf4BqImMhPjGDdZWXw2D6OJFlP1yDAcX2mC4vgH+3W84VrpHYKv/bd6cf/WFy48/4ubFybDdFqPUxc6As2H3Pnz2+UKlY3d0h1o4FGNMn30WMT/8AAIhjouHNCMDddnZzCQpqQwSB2j7lnTM2XoD2wNu87brQhhm26dDFt0buKkDyzW5KCjKE/SZXKstJYuWbkXKuZyUi8H6BhCJRIJjd3RDLZxDO3Zg0fTpqAoOQW1SEupyc1FfWoqGigo0lJVBVlTEYJGakk4G4wP7Wmz3S8HOwGTebDZFM8UQGDI3t61w8wgR9JlGrY7Cicgoxlwb204PzGrhkGoiXFyZG5FaCEijWAy5TIYmqRSNlZWQ5eczcIscK7Dyt1zsCkzmbcex8/jO5SSDwsEpCDWC5Zp7Aji0Qa6lbbFLlXIIzhGvILw4dpzSsTuyQyWcotxcDHn8cRZTyJ1INQRDXl8PyOWQNzYyUKSkoHN38MmWKuy5lMyb08UozLbPQPW1AQI4BMl2SzhutphiIdfqKJzQ1EKMe/kVREVFdYSH4Lsq4UQFBbERiuKJAI5MBnlTE+QNDQyOuKAUFqvrsP1iBpyDUnhbsiMMIec+UgJDcLw9bLD5R+H9lhzoFDgrHHdhke1iwQV2ZKNVODRsU0yhQEwqaayuZi7VJJGw2LP/cCFs99+Ha3AKb07HL8BhzzmVYAgOBefJyyuVch5yLU0Fdqohq3MrUo5P7B30699fqwRUG2gq4dBINaBPHxS6/cyGcKae7GwWhCn2EKi7sXcxfa0UrpfSsC8kVWEBscydysKHqIVDgDa7nlTKeaiM0VE4l27nw9L6cxw6dEiba9f4GZVw6Fvrv/gCW62tWcJHIxblNzR8k4rIlm0rx7oT+TgQmsbbGudAXPD4olUwBEddziOpb31qRpNyCI7LifMYP+FVjReuzQfUwqEvL5wxA++OH4+EffuYgijfIQv8LRHW26px8Eo6b85nQrB0a5BGMASH7CP7dOTcyxf0kVyrtXkrbeD4JtzD6Bde7JR59VbhUM/9T59m91UbP/kERe7uKPX8AzPWSuDkn43DYekKC03Ch/YZoKGau3hNrfsvG3Dg+FUBHHKtzoDz33WbsGzFSsGx27OhEQ4dlGLQpqVLGaSv7dyx5EAFjoZn8Ga/9xLOHv9KazAEjuKSxaoSpT5LZA1qZzy1VY7H1SQM0jfocGDWCg53BQF+V9n905GrWTgWkcns0IUQLPzuRpvAcKpavi0Y12ISuMOzllxL3Vy5tnDOx+XCfPqsDs+rtwnOiHGzMGeNO45HZjFzu5KCWfNvIfMb43bBCTxjjW9+iBDAoduJzoCz+bAnXp/0luDYbd3QGo7LYX88OdoCHtfv8Gb+rTeWWmxGk14PyJ/SBfYrgi2nDE0t5TwWK4tRXVMn6De5lqpVFm1RztmYHAwfOQqpaopyghOq2dAKTlW1FAOGmMLxl1CcvpHNbP3pMIyxi4GZVW9U/UsX0NGBvK8e5KP1gFPaQ9q57yjO+UYKutfQ1NQpcOYttcc6ewfBsduyoRWcOV/uxHiLr3HuZg5v45ak4FFbU+jY6qDwsR4MDgFikProQv6KHuCtGVKirxkrhrXsdGWtTGl9jirlpCVk4F70LeRExSP8VjZoKKeYQ8o56BeNp4cZtjswa4STklGEf/c3wqlrGfgz7i4ziy0XMdzOmYEhOI4TdFHfU08AiIF6tAeaZvcEAluHxHKeu3cEfOhGtPnKLlq81BxO2p1C1PkHQPrHnxD/ehy1pzxR7+ePwtAIhEanMzinorNh9va77Z5X1wjH+JW5mLf6CLxv5TJz9onDGLtE6Nr25uEMWaADSU+Fajj1cK1cTxfo3wPyhXpApGpIipwnWACHch51cHIy70Hm44syJyeUurii7OgvqDh9GiIvL0j8/FAXeAklIWG4dC0Za/cew9vvWAiOre1Gq3DcToRC/xlz+Cbm8Way7Ab62k7mwZByyKKHqFDOAzdjrtZLD+jXA/KVukojG+U8VCWU1Qu7XVUr49cEcsq5m1uCeh8flGzZitJ9+1H263EGpTLwEqrDw1ETHQ3xzZuQXruGuuAQlAeFYtCgwe2avlELh4LwoGFm2HokBIG385l9/L0fRiw5qgSG4FhP1YH4X60DYpB69wQG9ACchSpas8sHodfiBHTq6huV4EiCQlC+53teMaQWuvcjKLWJiZCkPrj/y8pi94B18fHYv3I1zF54AV7u7oLja9pQC2fBEle8PHUpgpPzmbmH3cbYxRnQsx2gEk7vL3VQ84hq1+JcrHkr76MHuZEu4KaAFHrOCmuchKMW1XlKH6wmJeWUZORAevoMSnbuwn03N1ScPQdSDIGR3E5mtW1ZXh6rHtSXlLCWtqVZWQh0c8OsSZNYXdzzp580cWHvq4RDQbjPQGOcDU8H1UnIXlp+Df1s31MJhnOtE8aaldMcEHvdVw+Y0BOyk71hueYuyiqqBB2vltSzpbYERxwWAZGzq0I15E7eF5krkWKolEt1bVbOraxCY2UVGkQiRb27oIABos9F/vwz5pibsykldw2TgSrhmLyxEPOWHUR4ehGzL38KwKgl51oFQ4DMrHT4nEcJQrP4o/K9PrpwmbMXx09cEcCh2wlapJ1fLEKjnx9KNm9hsYYCMKmGxZeMDMgKClgBrrGmBlSMozo3tVSgYxMCeXnM5UhllX5+SNi3H59NmcIqD4ITNttQgnPyXBQGDpuIyMxiZp6RKRhrl4RHbIdohEOAWuY8KkGoAZU6+GXM+Ex5pWhJlQSFBWVovOiD4q3bcP+ng8ylqq9cYXGGVNO8UkllXKpzU82bAaqsYqoi9yKYFKMILgX0PdbWWLVgQTMkD18qwaFM2OX4Fdy4U8JswtchGLx4vlZgCA7LeR5ph3vp6CBP1xBj5zQhMOxhB+kVlTEYHJ8HcNzc2AjFw8nNVbhTTQ2bHUFTEz8R0FRXx9RDMYggiuPjFXDOnmOQM77ZgAGP9QH7jvC0EMCxWeqK8e8sB81Bkzl4XMXzdkFagyE4reU8ramoWncAzHSiMMQEmPmVsJdNTXJQzGn0D0Dprt18MG4OhymHXKqujqmGzZI0NCimkaqrQXCYcjg4p08zOMWOm1j8aTnnTz3g4VAQJtV4haXhVm4ZrqUXwmRxrtbuRGA4u6Eh52kJqVG3J870nM92P/IoYDIfSjlPaZUEldGxLBPm3IqVb+Pj2UXTxVMQbqqtZephLkWqEYtZYOYmIcmtKFZxblW0YSObhipSsfCbh/Pq23aYa7cPSXnlzN78JhBPL97CXzB34dq0lPPUUj6jJra03F/R4wn01pHyu40/AHYfFqqntq6B3T7cj0tCg58/xM2H8dRU0JDN1EMjVU0Ng0ItjVjMpXJz2XBPsykUkCl5pOz6nr0Devfqpd6taE0NqSa1oII3+9+uYJxdBp6xO6A2t1EHSpHzCG9G+StvAaxKrz/e0/EXvD3ACJj4qRAO1Xly79ewqZnMnCJURkShITAQ0uBgFkeo6M8AlZSw+NN82pomJSk55IMxxRs3N5Yv7bSciVXz5glP9mCLKYfAHPKMQHqhSGCx2SWwdglk7jXMbpvgfkodGG7/SS1yHnKnCz2tBGA4diafASmZwj6X1UgF81aJmYUoiYxBw6Ug1IVHQJqsSAQJBoGiluIMB4ZiFOVGnGrIpUxGjACtP1L1p0O3CSZv2LBbBddjl5FZXKlk4al5sNwewCAZLP5KK1cz/UhzzlOiOwRDdIpUwjF6A/hig7DLsoYmARwaNGiVxY2UPORGxaGeg5SQyFyIsmYanSi34cCUn/RQBOKt27B79mysmj9feJJmW3zMofxmsKEZnhs/F8HRmcgprVKy4KQ7ePvbyxi3+C4G2FpphHS3n6IIpurqq3sOwEK946reYvt6DwBMVfSbRi1apE2rSTk4tJCAsvjLibnIirgJWeAlSEIuoyYsjA3bFIDpHowDQ7cfAYtsYW5iwiYPmvEQvOThcHu/2e7Jbh1mLNiO5NxS5JZVK5l3bDomrKZKoOo7dM617F/TRV0v1YE5Ws9MLRjOtcZ8BPwRwPVM0YrEdWrh0KQeFbu84+4iIewm6gICUevjC9EpT1bWoKSPwFTu/QH7V6zCgvmfCQ/eYksJDr1fUirCtA/Xo+9AY9jv/B355TUq7UhQIl5aHsNyIa4qyIGhlnKe6l7Kgbm8x0C17sSBodZgDPCurbDHtCIjtVCkUjkcHK4SeCb6Dq5djYPELwBirwsQ//En6rwvIs03BM4+sXhisH6rC55UwuG6cz0uByNNrDBkpDlO+cSjUCRWtgox9njFYNxXyRi15CR62RoJ3O3qUGG2XNuzL1bq7teoGoKj1wsw/RyoquZ6pGjzymu0gkOVwN+isvBLRCYuhibg/OUEuIckwSU4Bd8HpWDyxwuVnstofqZW4XAfpKJXv0HGmGixAvHpRSiprOWtSFTLbgzJ/ZYfCVca/q0sdFDT+yGgBD1TrcBwChr9HrDpB64nirZaWt9mOG5hGfjpSjr2XU7l4aw4+Aeef1H9giet4HBds1m2F4/2N8KcRc64XyUBZa3FlQ/hZJdUITmvEnObDf+PftkbFb0VrlWh+wSMdVLbBKffMGBCizSEVqGmFIiUAnJLt2quHFVwaCWa0XNj1M6rtwkOQcorFOHN91eh7yBj7DkUpAQno0iE5PwKXEkpxvtb/dnwv3rKEjTo6mF7T8c2geHUoyrnKRTVdgqcD1c44stFLQLbAzW0GQ6nouDwVDz97GQ8M3YWzl9OZSMaKYeDk/BgqD0TlYr3l/nhnfl5oMyXu+C2tMNfBz5bx51Z0dLsRMuhvD3K+fZcFAvMqp5Xbzccrqu79nkxFZnPXIfIxDwlONezShCRUYTDF8rwyrxGvPAR0PeptkHq1RcwVVFySSsUsSSQy3PaA4eWBptNnw13FfXlDsMhSET9Y5udbOj/fKUbcytOORwcStKo845HymE6rwnGlnI8OlB7SC98CPzW4rHO+9XSToGzaK8HXnpFecFTp8DhVERlj5ffssETQ82w43AIk31LOL4JebgQn4uvnCow1lqOkdPkIGVocrOBo4GpX3JnUrSU88TcKUVHlUMr7p82Gqk0r96pcLiunzkfBf3hZhj50hx4X4qD1M8fSbGpTDkcnLM378IzOhvWG6sw1howehOgWo46SLp6wEv/Uc55soqrOgXO+4sdlBY8dQkcDtJ3uz3R/3FDuNkthfjkKVQHBOF6TBpTDgfnt8g7oPU+0+zEGDsPGPoqQCBUQRo1DbDfwx1d0dKcemcoZ61HKJ4cOkwwr96lcKj7wV7eePP5MShyWA+Ruzuk/oEovxyGoOtpTDkEhxZCUR6y0+sOJi2UYNx8wMBErgSIAvnLLXIeOseNO6XsxrO9AZncarNfEkzenCaYV+9yOKHe3jAfMwYlTs6oOHsWNVHXIYuPhyz0CgpCr+HPiDQeDmWw+y+nYaNHNiZ8Wodxn0Jp+KcSavQtoXru3q/pFDifbj2EyVOn8QfvHjgvvoj7hw+j0t8fkpQUVrakEqacilIhoUgLvY4TV1NYek9w9oakwikoBSuO5sBkbgPGfPJw+B86AZjb4jeGaLETNxo2X4KiTYZMQzmnHEffJOg/NYz/IZFug1N2zJ3VVqicSSVM/jkKKoLT+uagEMQGR8EtJJmHs/tSMnYEJsNuXwFzpxdmKpSkKueJzy17EPAfrs9pD5zJ85fgO0fF74N1GxxSDs0WMDhlZfwUCk2lEKy6zExWoBL7BiAsMIoph4OzLeA2ysUN2PcrYDIPGG8LHD3Dq5+9KKqUdAqcVScvY+BgfXbMLodD9Vmq01KhidyqNiERsoJCfuq2saqKbZO7EbzyI0cgOfM7LgVGozmcPJGEp0F36d5B/CZ7Qet5gpMLBCu72qOcRQd+x+OD9FnO0+VwqOf0eFLyt9+i3MMD1WFhLO7U3bvHoFBLYGg/BWwK3B5r1+Pg7xE8nANX04Uk1Gzdzq9oNxwayl+3nAfjF8fyz4t2Cxw/Dw/MnDgRWd87MQCkEBq1xDdjWUvbBCbP2QVrZszAVLMpeOwJY0yat4fFnJD0YjU4hLsl9Y1MPVwlUBvlbPaOxfT/fs1Wnv508KDggN0Ch85IgOhJ4kXTLOC78VvccHVlQMJ27cKxpcsYFOOhQ7Fz9WrWwczsIkx8ZzH66pvA9VdfQadb2xDVykBZOC2Y1ATnPzvcMOyZZ/H1OnuV5dJug0MXJCotBT07am5qyh4V0NHRYU8fz506lUFRNV/tGxyPoaPMYWk1V+ula7QiLDyjWC0cB3cfjHvNHFOmTuOHbVXAuxWOqg5ou2+LkycG6hvBYcMmQYrf2vfTiqr4GjJl4M4+MXhnjg1GPDtaqx8I+dvAIQg0AWm1wBGDDYxw6pR2vxfol5TPCuxzV2zEk0MN4aJhNVdz2H8rOFzHqTRCvwFGP1zU2gOvVNL4Zr87DEc8i2XLV6iMK9wxVbV/SzjchRAYAkSguN8E496jZx7emDwVb0+zUKrTcJ/R1P6t4XAXR78mZ2xsjJ27dqGgsBArVq9lz5h39IeH/hFwCBL9VMP69euhb2CA7Tt2ah20OcCq2n8MHFUX19F9/wcLk2Tm1rw+BAAAAABJRU5ErkJggg==;imageBorder=#00CC00;strokeWidth=2;fontColor=#000000;" vertex="1" parent="1">
          <mxGeometry x="1220" y="830" width="52.45" height="61.31" as="geometry" />
        </mxCell>
        <mxCell id="1tD2yaVcWjCEcPpndOgp-1" value="- PUT: /&lt;font color=&quot;#ff0000&quot;&gt;ux&lt;/font&gt;-actualizar-reserva/appcodigo/&lt;font color=&quot;#ff0000&quot;&gt;servicio-al-cliente/v1&lt;/font&gt;/solicitud-reembolsos/{id-solicitud}&lt;br&gt;/archivos&lt;br style=&quot;border-color: var(--border-color);&quot;&gt;(multipart file)" style="edgeLabel;html=1;align=center;verticalAlign=middle;resizable=0;points=[];fontColor=#000000;" connectable="0" vertex="1" parent="1">
          <mxGeometry x="409.9979124315073" y="899.99883105456" as="geometry">
            <mxPoint x="416" y="29" as="offset" />
          </mxGeometry>
        </mxCell>
        <mxCell id="YBYPmY-2F89mOIW8aLzt-1" value="- DELETE /&lt;font color=&quot;#ff0000&quot;&gt;ux&lt;/font&gt;-cancelar-reserva/appcodigo/&lt;font color=&quot;#ff0000&quot;&gt;servicio-al-cliente/v1&lt;/font&gt;/cancelar-reserva/{id-reserva}&lt;br&gt;/archivos&lt;br style=&quot;border-color: var(--border-color);&quot;&gt;(multipart file)" style="edgeLabel;html=1;align=center;verticalAlign=middle;resizable=0;points=[];fontColor=#000000;" connectable="0" vertex="1" parent="1">
          <mxGeometry x="399.9979124315073" y="979.99883105456" as="geometry">
            <mxPoint x="416" y="29" as="offset" />
          </mxGeometry>
        </mxCell>
        <mxCell id="HZGF-DH1Zp5XKyqKNK4A-4" value="API NE PayPal" style="shape=image;verticalLabelPosition=bottom;labelBackgroundColor=#ffffff;verticalAlign=top;aspect=fixed;imageAspect=0;image=data:image/png,iVBORw0KGgoAAAANSUhEUgAAAEcAAABTCAYAAADN9xqSAAAWgUlEQVR4Ae2cC1hUVdfHEczXt7yVClaKpGmUKZSZVBaaSVmiZKWYlrz1ipj3VDAtvN/iYmqppEmmiKaFIlcBUUAQERCQO4LIHYHhMswwXOb/PWuP58hhZpjh+lTvx/OsZ885M3POPj/+a+111t5ndPD/f2oJ6Kh95y/0hpeXFxw3ber2Hv2l4RAUExMTTJ9hiVGjn0N8fHy3AvpLwlFAMcUHljMREn4dBRVibNqxGytXrvrfhcNBsZw5E1cjo1FWLUVJpYTBiU3JguHw4ZBKpd0G6C+hHAbF1BSWM2fhWnQMqiQyVIjrBHDuldVg1uyP4enp+b8Bh6CYmppi5qxZiI6JRa2sATXSerVwPL188dZb5v9sOByUWbOsEBMbC1lDI6T1jRrh5JRWY5jhcOTk5HQLoG51Kw6KlZUVYmPj0NDYhPrGpjbBWbtxMxwc1v+z4Lz33nsgKHFx8WiSy9HYJG8XnMiEdBgadk9g7hblUBC1trZm/225HB2Ck1lUCYvpM0Aq7Oq/LodDQ6+RkRGKioo6Dc6BX06wke1vD2fVqlXYu3ev4Do64laknJSCCujrG/DABQfvxI0uVQ6l+2ZmZkqJW2fAWbLaocvvt7oUzssTJiM0NFTpfynvQEDmlBMQGc8Cs9LBO3FHl8FZt/UULK0UQVhVf9s7WnFwEu+V480p78Df31/V4TtlX5fAKS2XYpDBwyCsqqedAcfF7XiXBuYugTNlxko4u7iqYsLvoyG9PUlgc+VEpeVjqKFhlwVmreFIa2vheegQNi1fziwnNZW/0OYvzvvHY4TxRKUg3Pwz3OuOwonNuY9Pv1gMV9fW/xHc+draagUnPiICxsOGYc6kSdjw4YfMjAwMYGNpiZaQhowwh7XjaYRmlkAkkbH+pGek4SOHLMjqhOUGcq223j40Vw7BORMYwQphbb1wbT6vEc4xJydMNDbGLWcXVJw+g4o//mRt+YkTOGxrCwZpxgwGyWH7KRiafIwtfkm8FVVJYbPpFmy+i4Z3YLigTzRqdRROdFYJJrw2SeWoKDhZOzZahZMaFwfTkSNRfNIDlf4BqImMhPjGDdZWXw2D6OJFlP1yDAcX2mC4vgH+3W84VrpHYKv/bd6cf/WFy48/4ubFybDdFqPUxc6As2H3Pnz2+UKlY3d0h1o4FGNMn30WMT/8AAIhjouHNCMDddnZzCQpqQwSB2j7lnTM2XoD2wNu87brQhhm26dDFt0buKkDyzW5KCjKE/SZXKstJYuWbkXKuZyUi8H6BhCJRIJjd3RDLZxDO3Zg0fTpqAoOQW1SEupyc1FfWoqGigo0lJVBVlTEYJGakk4G4wP7Wmz3S8HOwGTebDZFM8UQGDI3t61w8wgR9JlGrY7Cicgoxlwb204PzGrhkGoiXFyZG5FaCEijWAy5TIYmqRSNlZWQ5eczcIscK7Dyt1zsCkzmbcex8/jO5SSDwsEpCDWC5Zp7Aji0Qa6lbbFLlXIIzhGvILw4dpzSsTuyQyWcotxcDHn8cRZTyJ1INQRDXl8PyOWQNzYyUKSkoHN38MmWKuy5lMyb08UozLbPQPW1AQI4BMl2SzhutphiIdfqKJzQ1EKMe/kVREVFdYSH4Lsq4UQFBbERiuKJAI5MBnlTE+QNDQyOuKAUFqvrsP1iBpyDUnhbsiMMIec+UgJDcLw9bLD5R+H9lhzoFDgrHHdhke1iwQV2ZKNVODRsU0yhQEwqaayuZi7VJJGw2LP/cCFs99+Ha3AKb07HL8BhzzmVYAgOBefJyyuVch5yLU0Fdqohq3MrUo5P7B30699fqwRUG2gq4dBINaBPHxS6/cyGcKae7GwWhCn2EKi7sXcxfa0UrpfSsC8kVWEBscydysKHqIVDgDa7nlTKeaiM0VE4l27nw9L6cxw6dEiba9f4GZVw6Fvrv/gCW62tWcJHIxblNzR8k4rIlm0rx7oT+TgQmsbbGudAXPD4olUwBEddziOpb31qRpNyCI7LifMYP+FVjReuzQfUwqEvL5wxA++OH4+EffuYgijfIQv8LRHW26px8Eo6b85nQrB0a5BGMASH7CP7dOTcyxf0kVyrtXkrbeD4JtzD6Bde7JR59VbhUM/9T59m91UbP/kERe7uKPX8AzPWSuDkn43DYekKC03Ch/YZoKGau3hNrfsvG3Dg+FUBHHKtzoDz33WbsGzFSsGx27OhEQ4dlGLQpqVLGaSv7dyx5EAFjoZn8Ga/9xLOHv9KazAEjuKSxaoSpT5LZA1qZzy1VY7H1SQM0jfocGDWCg53BQF+V9n905GrWTgWkcns0IUQLPzuRpvAcKpavi0Y12ISuMOzllxL3Vy5tnDOx+XCfPqsDs+rtwnOiHGzMGeNO45HZjFzu5KCWfNvIfMb43bBCTxjjW9+iBDAoduJzoCz+bAnXp/0luDYbd3QGo7LYX88OdoCHtfv8Gb+rTeWWmxGk14PyJ/SBfYrgi2nDE0t5TwWK4tRXVMn6De5lqpVFm1RztmYHAwfOQqpaopyghOq2dAKTlW1FAOGmMLxl1CcvpHNbP3pMIyxi4GZVW9U/UsX0NGBvK8e5KP1gFPaQ9q57yjO+UYKutfQ1NQpcOYttcc6ewfBsduyoRWcOV/uxHiLr3HuZg5v45ak4FFbU+jY6qDwsR4MDgFikProQv6KHuCtGVKirxkrhrXsdGWtTGl9jirlpCVk4F70LeRExSP8VjZoKKeYQ8o56BeNp4cZtjswa4STklGEf/c3wqlrGfgz7i4ziy0XMdzOmYEhOI4TdFHfU08AiIF6tAeaZvcEAluHxHKeu3cEfOhGtPnKLlq81BxO2p1C1PkHQPrHnxD/ehy1pzxR7+ePwtAIhEanMzinorNh9va77Z5X1wjH+JW5mLf6CLxv5TJz9onDGLtE6Nr25uEMWaADSU+Fajj1cK1cTxfo3wPyhXpApGpIipwnWACHch51cHIy70Hm44syJyeUurii7OgvqDh9GiIvL0j8/FAXeAklIWG4dC0Za/cew9vvWAiOre1Gq3DcToRC/xlz+Cbm8Way7Ab62k7mwZByyKKHqFDOAzdjrtZLD+jXA/KVukojG+U8VCWU1Qu7XVUr49cEcsq5m1uCeh8flGzZitJ9+1H263EGpTLwEqrDw1ETHQ3xzZuQXruGuuAQlAeFYtCgwe2avlELh4LwoGFm2HokBIG385l9/L0fRiw5qgSG4FhP1YH4X60DYpB69wQG9ACchSpas8sHodfiBHTq6huV4EiCQlC+53teMaQWuvcjKLWJiZCkPrj/y8pi94B18fHYv3I1zF54AV7u7oLja9pQC2fBEle8PHUpgpPzmbmH3cbYxRnQsx2gEk7vL3VQ84hq1+JcrHkr76MHuZEu4KaAFHrOCmuchKMW1XlKH6wmJeWUZORAevoMSnbuwn03N1ScPQdSDIGR3E5mtW1ZXh6rHtSXlLCWtqVZWQh0c8OsSZNYXdzzp580cWHvq4RDQbjPQGOcDU8H1UnIXlp+Df1s31MJhnOtE8aaldMcEHvdVw+Y0BOyk71hueYuyiqqBB2vltSzpbYERxwWAZGzq0I15E7eF5krkWKolEt1bVbOraxCY2UVGkQiRb27oIABos9F/vwz5pibsykldw2TgSrhmLyxEPOWHUR4ehGzL38KwKgl51oFQ4DMrHT4nEcJQrP4o/K9PrpwmbMXx09cEcCh2wlapJ1fLEKjnx9KNm9hsYYCMKmGxZeMDMgKClgBrrGmBlSMozo3tVSgYxMCeXnM5UhllX5+SNi3H59NmcIqD4ITNttQgnPyXBQGDpuIyMxiZp6RKRhrl4RHbIdohEOAWuY8KkGoAZU6+GXM+Ex5pWhJlQSFBWVovOiD4q3bcP+ng8ylqq9cYXGGVNO8UkllXKpzU82bAaqsYqoi9yKYFKMILgX0PdbWWLVgQTMkD18qwaFM2OX4Fdy4U8JswtchGLx4vlZgCA7LeR5ph3vp6CBP1xBj5zQhMOxhB+kVlTEYHJ8HcNzc2AjFw8nNVbhTTQ2bHUFTEz8R0FRXx9RDMYggiuPjFXDOnmOQM77ZgAGP9QH7jvC0EMCxWeqK8e8sB81Bkzl4XMXzdkFagyE4reU8ramoWncAzHSiMMQEmPmVsJdNTXJQzGn0D0Dprt18MG4OhymHXKqujqmGzZI0NCimkaqrQXCYcjg4p08zOMWOm1j8aTnnTz3g4VAQJtV4haXhVm4ZrqUXwmRxrtbuRGA4u6Eh52kJqVG3J870nM92P/IoYDIfSjlPaZUEldGxLBPm3IqVb+Pj2UXTxVMQbqqtZephLkWqEYtZYOYmIcmtKFZxblW0YSObhipSsfCbh/Pq23aYa7cPSXnlzN78JhBPL97CXzB34dq0lPPUUj6jJra03F/R4wn01pHyu40/AHYfFqqntq6B3T7cj0tCg58/xM2H8dRU0JDN1EMjVU0Ng0ItjVjMpXJz2XBPsykUkCl5pOz6nr0Devfqpd6taE0NqSa1oII3+9+uYJxdBp6xO6A2t1EHSpHzCG9G+StvAaxKrz/e0/EXvD3ACJj4qRAO1Xly79ewqZnMnCJURkShITAQ0uBgFkeo6M8AlZSw+NN82pomJSk55IMxxRs3N5Yv7bSciVXz5glP9mCLKYfAHPKMQHqhSGCx2SWwdglk7jXMbpvgfkodGG7/SS1yHnKnCz2tBGA4diafASmZwj6X1UgF81aJmYUoiYxBw6Ug1IVHQJqsSAQJBoGiluIMB4ZiFOVGnGrIpUxGjACtP1L1p0O3CSZv2LBbBddjl5FZXKlk4al5sNwewCAZLP5KK1cz/UhzzlOiOwRDdIpUwjF6A/hig7DLsoYmARwaNGiVxY2UPORGxaGeg5SQyFyIsmYanSi34cCUn/RQBOKt27B79mysmj9feJJmW3zMofxmsKEZnhs/F8HRmcgprVKy4KQ7ePvbyxi3+C4G2FpphHS3n6IIpurqq3sOwEK946reYvt6DwBMVfSbRi1apE2rSTk4tJCAsvjLibnIirgJWeAlSEIuoyYsjA3bFIDpHowDQ7cfAYtsYW5iwiYPmvEQvOThcHu/2e7Jbh1mLNiO5NxS5JZVK5l3bDomrKZKoOo7dM617F/TRV0v1YE5Ws9MLRjOtcZ8BPwRwPVM0YrEdWrh0KQeFbu84+4iIewm6gICUevjC9EpT1bWoKSPwFTu/QH7V6zCgvmfCQ/eYksJDr1fUirCtA/Xo+9AY9jv/B355TUq7UhQIl5aHsNyIa4qyIGhlnKe6l7Kgbm8x0C17sSBodZgDPCurbDHtCIjtVCkUjkcHK4SeCb6Dq5djYPELwBirwsQ//En6rwvIs03BM4+sXhisH6rC55UwuG6cz0uByNNrDBkpDlO+cSjUCRWtgox9njFYNxXyRi15CR62RoJ3O3qUGG2XNuzL1bq7teoGoKj1wsw/RyoquZ6pGjzymu0gkOVwN+isvBLRCYuhibg/OUEuIckwSU4Bd8HpWDyxwuVnstofqZW4XAfpKJXv0HGmGixAvHpRSiprOWtSFTLbgzJ/ZYfCVca/q0sdFDT+yGgBD1TrcBwChr9HrDpB64nirZaWt9mOG5hGfjpSjr2XU7l4aw4+Aeef1H9giet4HBds1m2F4/2N8KcRc64XyUBZa3FlQ/hZJdUITmvEnObDf+PftkbFb0VrlWh+wSMdVLbBKffMGBCizSEVqGmFIiUAnJLt2quHFVwaCWa0XNj1M6rtwkOQcorFOHN91eh7yBj7DkUpAQno0iE5PwKXEkpxvtb/dnwv3rKEjTo6mF7T8c2geHUoyrnKRTVdgqcD1c44stFLQLbAzW0GQ6nouDwVDz97GQ8M3YWzl9OZSMaKYeDk/BgqD0TlYr3l/nhnfl5oMyXu+C2tMNfBz5bx51Z0dLsRMuhvD3K+fZcFAvMqp5Xbzccrqu79nkxFZnPXIfIxDwlONezShCRUYTDF8rwyrxGvPAR0PeptkHq1RcwVVFySSsUsSSQy3PaA4eWBptNnw13FfXlDsMhSET9Y5udbOj/fKUbcytOORwcStKo845HymE6rwnGlnI8OlB7SC98CPzW4rHO+9XSToGzaK8HXnpFecFTp8DhVERlj5ffssETQ82w43AIk31LOL4JebgQn4uvnCow1lqOkdPkIGVocrOBo4GpX3JnUrSU88TcKUVHlUMr7p82Gqk0r96pcLiunzkfBf3hZhj50hx4X4qD1M8fSbGpTDkcnLM378IzOhvWG6sw1howehOgWo46SLp6wEv/Uc55soqrOgXO+4sdlBY8dQkcDtJ3uz3R/3FDuNkthfjkKVQHBOF6TBpTDgfnt8g7oPU+0+zEGDsPGPoqQCBUQRo1DbDfwx1d0dKcemcoZ61HKJ4cOkwwr96lcKj7wV7eePP5MShyWA+Ruzuk/oEovxyGoOtpTDkEhxZCUR6y0+sOJi2UYNx8wMBErgSIAvnLLXIeOseNO6XsxrO9AZncarNfEkzenCaYV+9yOKHe3jAfMwYlTs6oOHsWNVHXIYuPhyz0CgpCr+HPiDQeDmWw+y+nYaNHNiZ8Wodxn0Jp+KcSavQtoXru3q/pFDifbj2EyVOn8QfvHjgvvoj7hw+j0t8fkpQUVrakEqacilIhoUgLvY4TV1NYek9w9oakwikoBSuO5sBkbgPGfPJw+B86AZjb4jeGaLETNxo2X4KiTYZMQzmnHEffJOg/NYz/IZFug1N2zJ3VVqicSSVM/jkKKoLT+uagEMQGR8EtJJmHs/tSMnYEJsNuXwFzpxdmKpSkKueJzy17EPAfrs9pD5zJ85fgO0fF74N1GxxSDs0WMDhlZfwUCk2lEKy6zExWoBL7BiAsMIoph4OzLeA2ysUN2PcrYDIPGG8LHD3Dq5+9KKqUdAqcVScvY+BgfXbMLodD9Vmq01KhidyqNiERsoJCfuq2saqKbZO7EbzyI0cgOfM7LgVGozmcPJGEp0F36d5B/CZ7Qet5gpMLBCu72qOcRQd+x+OD9FnO0+VwqOf0eFLyt9+i3MMD1WFhLO7U3bvHoFBLYGg/BWwK3B5r1+Pg7xE8nANX04Uk1Gzdzq9oNxwayl+3nAfjF8fyz4t2Cxw/Dw/MnDgRWd87MQCkEBq1xDdjWUvbBCbP2QVrZszAVLMpeOwJY0yat4fFnJD0YjU4hLsl9Y1MPVwlUBvlbPaOxfT/fs1Wnv508KDggN0Ch85IgOhJ4kXTLOC78VvccHVlQMJ27cKxpcsYFOOhQ7Fz9WrWwczsIkx8ZzH66pvA9VdfQadb2xDVykBZOC2Y1ATnPzvcMOyZZ/H1OnuV5dJug0MXJCotBT07am5qyh4V0NHRYU8fz506lUFRNV/tGxyPoaPMYWk1V+ula7QiLDyjWC0cB3cfjHvNHFOmTuOHbVXAuxWOqg5ou2+LkycG6hvBYcMmQYrf2vfTiqr4GjJl4M4+MXhnjg1GPDtaqx8I+dvAIQg0AWm1wBGDDYxw6pR2vxfol5TPCuxzV2zEk0MN4aJhNVdz2H8rOFzHqTRCvwFGP1zU2gOvVNL4Zr87DEc8i2XLV6iMK9wxVbV/SzjchRAYAkSguN8E496jZx7emDwVb0+zUKrTcJ/R1P6t4XAXR78mZ2xsjJ27dqGgsBArVq9lz5h39IeH/hFwCBL9VMP69euhb2CA7Tt2ah20OcCq2n8MHFUX19F9/wcLk2Tm1rw+BAAAAABJRU5ErkJggg==;imageBorder=#00CC00;strokeWidth=2;" vertex="1" parent="1">
          <mxGeometry x="1241" y="1161" width="52.45" height="61.31" as="geometry" />
        </mxCell>
        <mxCell id="P56vPbAdMezWBgigL5nQ-1" value="- POST: /&lt;font color=&quot;#ff0000&quot;&gt;ux&lt;/font&gt;-orden-api/health&lt;font color=&quot;#ff0000&quot;&gt;/servicio-al-cliente/v1&lt;/font&gt;/orden-api{id-orden}" style="edgeLabel;html=1;align=center;verticalAlign=middle;resizable=0;points=[];fontColor=#000000;labelBackgroundColor=none;" connectable="0" vertex="1" parent="1">
          <mxGeometry x="859.9979124315073" y="1209.9988310545596" as="geometry">
            <mxPoint x="-16" y="-69" as="offset" />
          </mxGeometry>
        </mxCell>
        <mxCell id="UaEHaR9vK8sGkvLiDyMv-3" value="- GET: /&lt;font color=&quot;#ff0000&quot;&gt;ux&lt;/font&gt;-detalles-orden/health/&lt;font color=&quot;#ff0000&quot;&gt;servicio-al-cliente/v1&lt;/font&gt;/detalles-orden" style="edgeLabel;html=1;align=center;verticalAlign=middle;resizable=0;points=[];fontColor=#000000;" connectable="0" vertex="1" parent="1">
          <mxGeometry x="826.9979124315073" y="1189.99883105456" as="geometry" />
        </mxCell>
        <mxCell id="iXgf4YkFJVtZgbczvJxg-1" value="- PUT: /&lt;font color=&quot;#ff0000&quot;&gt;ux&lt;/font&gt;-actualizar-orden/health/&lt;font color=&quot;#ff0000&quot;&gt;servicio-al-cliente/v1&lt;/font&gt;/actualizar-orden" style="edgeLabel;html=1;align=center;verticalAlign=middle;resizable=0;points=[];fontColor=#000000;" connectable="0" vertex="1" parent="1">
          <mxGeometry x="826.9979124315073" y="1229.99883105456" as="geometry" />
        </mxCell>
        <mxCell id="YTmTdEb5dLQGfPCODxW0-1" value="- POST: /&lt;font color=&quot;#ff0000&quot;&gt;ux&lt;/font&gt;-confirmar-orden/health&lt;font color=&quot;#ff0000&quot;&gt;/servicio-al-cliente/v1&lt;/font&gt;/confirmar-orden{id-orden}" style="edgeLabel;html=1;align=center;verticalAlign=middle;resizable=0;points=[];fontColor=#000000;labelBackgroundColor=none;" connectable="0" vertex="1" parent="1">
          <mxGeometry x="826.9979124315073" y="1339.9988310545596" as="geometry">
            <mxPoint x="-16" y="-69" as="offset" />
          </mxGeometry>
        </mxCell>
        <mxCell id="YTmTdEb5dLQGfPCODxW0-2" value="- POST: /&lt;font color=&quot;#ff0000&quot;&gt;ux&lt;/font&gt;-autorizar-orden/health&lt;font color=&quot;#ff0000&quot;&gt;/servicio-al-cliente/v1&lt;/font&gt;/autorizar-orden{id-orden}" style="edgeLabel;html=1;align=center;verticalAlign=middle;resizable=0;points=[];fontColor=#000000;labelBackgroundColor=none;" connectable="0" vertex="1" parent="1">
          <mxGeometry x="826.9979124315073" y="1389.9988310545596" as="geometry">
            <mxPoint x="-16" y="-69" as="offset" />
          </mxGeometry>
        </mxCell>
        <mxCell id="YTmTdEb5dLQGfPCODxW0-3" value="- POST: /&lt;font color=&quot;#ff0000&quot;&gt;ux&lt;/font&gt;-pagos/health&lt;font color=&quot;#ff0000&quot;&gt;/servicio-al-cliente/v1&lt;/font&gt;/capturar-pagos/id-orden" style="edgeLabel;html=1;align=center;verticalAlign=middle;resizable=0;points=[];fontColor=#000000;labelBackgroundColor=none;" connectable="0" vertex="1" parent="1">
          <mxGeometry x="831.9979124315073" y="1449.3188310545595" as="geometry">
            <mxPoint x="-16" y="-69" as="offset" />
          </mxGeometry>
        </mxCell>
        <mxCell id="3zlR94gZ55OXKOGAVrWg-1" value="API PagoEfectivo" style="shape=image;verticalLabelPosition=bottom;labelBackgroundColor=#ffffff;verticalAlign=top;aspect=fixed;imageAspect=0;image=data:image/png,iVBORw0KGgoAAAANSUhEUgAAAEcAAABTCAYAAADN9xqSAAAWgUlEQVR4Ae2cC1hUVdfHEczXt7yVClaKpGmUKZSZVBaaSVmiZKWYlrz1ipj3VDAtvN/iYmqppEmmiKaFIlcBUUAQERCQO4LIHYHhMswwXOb/PWuP58hhZpjh+lTvx/OsZ885M3POPj/+a+111t5ndPD/f2oJ6Kh95y/0hpeXFxw3ber2Hv2l4RAUExMTTJ9hiVGjn0N8fHy3AvpLwlFAMcUHljMREn4dBRVibNqxGytXrvrfhcNBsZw5E1cjo1FWLUVJpYTBiU3JguHw4ZBKpd0G6C+hHAbF1BSWM2fhWnQMqiQyVIjrBHDuldVg1uyP4enp+b8Bh6CYmppi5qxZiI6JRa2sATXSerVwPL188dZb5v9sOByUWbOsEBMbC1lDI6T1jRrh5JRWY5jhcOTk5HQLoG51Kw6KlZUVYmPj0NDYhPrGpjbBWbtxMxwc1v+z4Lz33nsgKHFx8WiSy9HYJG8XnMiEdBgadk9g7hblUBC1trZm/225HB2Ck1lUCYvpM0Aq7Oq/LodDQ6+RkRGKioo6Dc6BX06wke1vD2fVqlXYu3ev4Do64laknJSCCujrG/DABQfvxI0uVQ6l+2ZmZkqJW2fAWbLaocvvt7oUzssTJiM0NFTpfynvQEDmlBMQGc8Cs9LBO3FHl8FZt/UULK0UQVhVf9s7WnFwEu+V480p78Df31/V4TtlX5fAKS2XYpDBwyCsqqedAcfF7XiXBuYugTNlxko4u7iqYsLvoyG9PUlgc+VEpeVjqKFhlwVmreFIa2vheegQNi1fziwnNZW/0OYvzvvHY4TxRKUg3Pwz3OuOwonNuY9Pv1gMV9fW/xHc+draagUnPiICxsOGYc6kSdjw4YfMjAwMYGNpiZaQhowwh7XjaYRmlkAkkbH+pGek4SOHLMjqhOUGcq223j40Vw7BORMYwQphbb1wbT6vEc4xJydMNDbGLWcXVJw+g4o//mRt+YkTOGxrCwZpxgwGyWH7KRiafIwtfkm8FVVJYbPpFmy+i4Z3YLigTzRqdRROdFYJJrw2SeWoKDhZOzZahZMaFwfTkSNRfNIDlf4BqImMhPjGDdZWXw2D6OJFlP1yDAcX2mC4vgH+3W84VrpHYKv/bd6cf/WFy48/4ubFybDdFqPUxc6As2H3Pnz2+UKlY3d0h1o4FGNMn30WMT/8AAIhjouHNCMDddnZzCQpqQwSB2j7lnTM2XoD2wNu87brQhhm26dDFt0buKkDyzW5KCjKE/SZXKstJYuWbkXKuZyUi8H6BhCJRIJjd3RDLZxDO3Zg0fTpqAoOQW1SEupyc1FfWoqGigo0lJVBVlTEYJGakk4G4wP7Wmz3S8HOwGTebDZFM8UQGDI3t61w8wgR9JlGrY7Cicgoxlwb204PzGrhkGoiXFyZG5FaCEijWAy5TIYmqRSNlZWQ5eczcIscK7Dyt1zsCkzmbcex8/jO5SSDwsEpCDWC5Zp7Aji0Qa6lbbFLlXIIzhGvILw4dpzSsTuyQyWcotxcDHn8cRZTyJ1INQRDXl8PyOWQNzYyUKSkoHN38MmWKuy5lMyb08UozLbPQPW1AQI4BMl2SzhutphiIdfqKJzQ1EKMe/kVREVFdYSH4Lsq4UQFBbERiuKJAI5MBnlTE+QNDQyOuKAUFqvrsP1iBpyDUnhbsiMMIec+UgJDcLw9bLD5R+H9lhzoFDgrHHdhke1iwQV2ZKNVODRsU0yhQEwqaayuZi7VJJGw2LP/cCFs99+Ha3AKb07HL8BhzzmVYAgOBefJyyuVch5yLU0Fdqohq3MrUo5P7B30699fqwRUG2gq4dBINaBPHxS6/cyGcKae7GwWhCn2EKi7sXcxfa0UrpfSsC8kVWEBscydysKHqIVDgDa7nlTKeaiM0VE4l27nw9L6cxw6dEiba9f4GZVw6Fvrv/gCW62tWcJHIxblNzR8k4rIlm0rx7oT+TgQmsbbGudAXPD4olUwBEddziOpb31qRpNyCI7LifMYP+FVjReuzQfUwqEvL5wxA++OH4+EffuYgijfIQv8LRHW26px8Eo6b85nQrB0a5BGMASH7CP7dOTcyxf0kVyrtXkrbeD4JtzD6Bde7JR59VbhUM/9T59m91UbP/kERe7uKPX8AzPWSuDkn43DYekKC03Ch/YZoKGau3hNrfsvG3Dg+FUBHHKtzoDz33WbsGzFSsGx27OhEQ4dlGLQpqVLGaSv7dyx5EAFjoZn8Ga/9xLOHv9KazAEjuKSxaoSpT5LZA1qZzy1VY7H1SQM0jfocGDWCg53BQF+V9n905GrWTgWkcns0IUQLPzuRpvAcKpavi0Y12ISuMOzllxL3Vy5tnDOx+XCfPqsDs+rtwnOiHGzMGeNO45HZjFzu5KCWfNvIfMb43bBCTxjjW9+iBDAoduJzoCz+bAnXp/0luDYbd3QGo7LYX88OdoCHtfv8Gb+rTeWWmxGk14PyJ/SBfYrgi2nDE0t5TwWK4tRXVMn6De5lqpVFm1RztmYHAwfOQqpaopyghOq2dAKTlW1FAOGmMLxl1CcvpHNbP3pMIyxi4GZVW9U/UsX0NGBvK8e5KP1gFPaQ9q57yjO+UYKutfQ1NQpcOYttcc6ewfBsduyoRWcOV/uxHiLr3HuZg5v45ak4FFbU+jY6qDwsR4MDgFikProQv6KHuCtGVKirxkrhrXsdGWtTGl9jirlpCVk4F70LeRExSP8VjZoKKeYQ8o56BeNp4cZtjswa4STklGEf/c3wqlrGfgz7i4ziy0XMdzOmYEhOI4TdFHfU08AiIF6tAeaZvcEAluHxHKeu3cEfOhGtPnKLlq81BxO2p1C1PkHQPrHnxD/ehy1pzxR7+ePwtAIhEanMzinorNh9va77Z5X1wjH+JW5mLf6CLxv5TJz9onDGLtE6Nr25uEMWaADSU+Fajj1cK1cTxfo3wPyhXpApGpIipwnWACHch51cHIy70Hm44syJyeUurii7OgvqDh9GiIvL0j8/FAXeAklIWG4dC0Za/cew9vvWAiOre1Gq3DcToRC/xlz+Cbm8Way7Ab62k7mwZByyKKHqFDOAzdjrtZLD+jXA/KVukojG+U8VCWU1Qu7XVUr49cEcsq5m1uCeh8flGzZitJ9+1H263EGpTLwEqrDw1ETHQ3xzZuQXruGuuAQlAeFYtCgwe2avlELh4LwoGFm2HokBIG385l9/L0fRiw5qgSG4FhP1YH4X60DYpB69wQG9ACchSpas8sHodfiBHTq6huV4EiCQlC+53teMaQWuvcjKLWJiZCkPrj/y8pi94B18fHYv3I1zF54AV7u7oLja9pQC2fBEle8PHUpgpPzmbmH3cbYxRnQsx2gEk7vL3VQ84hq1+JcrHkr76MHuZEu4KaAFHrOCmuchKMW1XlKH6wmJeWUZORAevoMSnbuwn03N1ScPQdSDIGR3E5mtW1ZXh6rHtSXlLCWtqVZWQh0c8OsSZNYXdzzp580cWHvq4RDQbjPQGOcDU8H1UnIXlp+Df1s31MJhnOtE8aaldMcEHvdVw+Y0BOyk71hueYuyiqqBB2vltSzpbYERxwWAZGzq0I15E7eF5krkWKolEt1bVbOraxCY2UVGkQiRb27oIABos9F/vwz5pibsykldw2TgSrhmLyxEPOWHUR4ehGzL38KwKgl51oFQ4DMrHT4nEcJQrP4o/K9PrpwmbMXx09cEcCh2wlapJ1fLEKjnx9KNm9hsYYCMKmGxZeMDMgKClgBrrGmBlSMozo3tVSgYxMCeXnM5UhllX5+SNi3H59NmcIqD4ITNttQgnPyXBQGDpuIyMxiZp6RKRhrl4RHbIdohEOAWuY8KkGoAZU6+GXM+Ex5pWhJlQSFBWVovOiD4q3bcP+ng8ylqq9cYXGGVNO8UkllXKpzU82bAaqsYqoi9yKYFKMILgX0PdbWWLVgQTMkD18qwaFM2OX4Fdy4U8JswtchGLx4vlZgCA7LeR5ph3vp6CBP1xBj5zQhMOxhB+kVlTEYHJ8HcNzc2AjFw8nNVbhTTQ2bHUFTEz8R0FRXx9RDMYggiuPjFXDOnmOQM77ZgAGP9QH7jvC0EMCxWeqK8e8sB81Bkzl4XMXzdkFagyE4reU8ramoWncAzHSiMMQEmPmVsJdNTXJQzGn0D0Dprt18MG4OhymHXKqujqmGzZI0NCimkaqrQXCYcjg4p08zOMWOm1j8aTnnTz3g4VAQJtV4haXhVm4ZrqUXwmRxrtbuRGA4u6Eh52kJqVG3J870nM92P/IoYDIfSjlPaZUEldGxLBPm3IqVb+Pj2UXTxVMQbqqtZephLkWqEYtZYOYmIcmtKFZxblW0YSObhipSsfCbh/Pq23aYa7cPSXnlzN78JhBPL97CXzB34dq0lPPUUj6jJra03F/R4wn01pHyu40/AHYfFqqntq6B3T7cj0tCg58/xM2H8dRU0JDN1EMjVU0Ng0ItjVjMpXJz2XBPsykUkCl5pOz6nr0Devfqpd6taE0NqSa1oII3+9+uYJxdBp6xO6A2t1EHSpHzCG9G+StvAaxKrz/e0/EXvD3ACJj4qRAO1Xly79ewqZnMnCJURkShITAQ0uBgFkeo6M8AlZSw+NN82pomJSk55IMxxRs3N5Yv7bSciVXz5glP9mCLKYfAHPKMQHqhSGCx2SWwdglk7jXMbpvgfkodGG7/SS1yHnKnCz2tBGA4diafASmZwj6X1UgF81aJmYUoiYxBw6Ug1IVHQJqsSAQJBoGiluIMB4ZiFOVGnGrIpUxGjACtP1L1p0O3CSZv2LBbBddjl5FZXKlk4al5sNwewCAZLP5KK1cz/UhzzlOiOwRDdIpUwjF6A/hig7DLsoYmARwaNGiVxY2UPORGxaGeg5SQyFyIsmYanSi34cCUn/RQBOKt27B79mysmj9feJJmW3zMofxmsKEZnhs/F8HRmcgprVKy4KQ7ePvbyxi3+C4G2FpphHS3n6IIpurqq3sOwEK946reYvt6DwBMVfSbRi1apE2rSTk4tJCAsvjLibnIirgJWeAlSEIuoyYsjA3bFIDpHowDQ7cfAYtsYW5iwiYPmvEQvOThcHu/2e7Jbh1mLNiO5NxS5JZVK5l3bDomrKZKoOo7dM617F/TRV0v1YE5Ws9MLRjOtcZ8BPwRwPVM0YrEdWrh0KQeFbu84+4iIewm6gICUevjC9EpT1bWoKSPwFTu/QH7V6zCgvmfCQ/eYksJDr1fUirCtA/Xo+9AY9jv/B355TUq7UhQIl5aHsNyIa4qyIGhlnKe6l7Kgbm8x0C17sSBodZgDPCurbDHtCIjtVCkUjkcHK4SeCb6Dq5djYPELwBirwsQ//En6rwvIs03BM4+sXhisH6rC55UwuG6cz0uByNNrDBkpDlO+cSjUCRWtgox9njFYNxXyRi15CR62RoJ3O3qUGG2XNuzL1bq7teoGoKj1wsw/RyoquZ6pGjzymu0gkOVwN+isvBLRCYuhibg/OUEuIckwSU4Bd8HpWDyxwuVnstofqZW4XAfpKJXv0HGmGixAvHpRSiprOWtSFTLbgzJ/ZYfCVca/q0sdFDT+yGgBD1TrcBwChr9HrDpB64nirZaWt9mOG5hGfjpSjr2XU7l4aw4+Aeef1H9giet4HBds1m2F4/2N8KcRc64XyUBZa3FlQ/hZJdUITmvEnObDf+PftkbFb0VrlWh+wSMdVLbBKffMGBCizSEVqGmFIiUAnJLt2quHFVwaCWa0XNj1M6rtwkOQcorFOHN91eh7yBj7DkUpAQno0iE5PwKXEkpxvtb/dnwv3rKEjTo6mF7T8c2geHUoyrnKRTVdgqcD1c44stFLQLbAzW0GQ6nouDwVDz97GQ8M3YWzl9OZSMaKYeDk/BgqD0TlYr3l/nhnfl5oMyXu+C2tMNfBz5bx51Z0dLsRMuhvD3K+fZcFAvMqp5Xbzccrqu79nkxFZnPXIfIxDwlONezShCRUYTDF8rwyrxGvPAR0PeptkHq1RcwVVFySSsUsSSQy3PaA4eWBptNnw13FfXlDsMhSET9Y5udbOj/fKUbcytOORwcStKo845HymE6rwnGlnI8OlB7SC98CPzW4rHO+9XSToGzaK8HXnpFecFTp8DhVERlj5ffssETQ82w43AIk31LOL4JebgQn4uvnCow1lqOkdPkIGVocrOBo4GpX3JnUrSU88TcKUVHlUMr7p82Gqk0r96pcLiunzkfBf3hZhj50hx4X4qD1M8fSbGpTDkcnLM378IzOhvWG6sw1howehOgWo46SLp6wEv/Uc55soqrOgXO+4sdlBY8dQkcDtJ3uz3R/3FDuNkthfjkKVQHBOF6TBpTDgfnt8g7oPU+0+zEGDsPGPoqQCBUQRo1DbDfwx1d0dKcemcoZ61HKJ4cOkwwr96lcKj7wV7eePP5MShyWA+Ruzuk/oEovxyGoOtpTDkEhxZCUR6y0+sOJi2UYNx8wMBErgSIAvnLLXIeOseNO6XsxrO9AZncarNfEkzenCaYV+9yOKHe3jAfMwYlTs6oOHsWNVHXIYuPhyz0CgpCr+HPiDQeDmWw+y+nYaNHNiZ8Wodxn0Jp+KcSavQtoXru3q/pFDifbj2EyVOn8QfvHjgvvoj7hw+j0t8fkpQUVrakEqacilIhoUgLvY4TV1NYek9w9oakwikoBSuO5sBkbgPGfPJw+B86AZjb4jeGaLETNxo2X4KiTYZMQzmnHEffJOg/NYz/IZFug1N2zJ3VVqicSSVM/jkKKoLT+uagEMQGR8EtJJmHs/tSMnYEJsNuXwFzpxdmKpSkKueJzy17EPAfrs9pD5zJ85fgO0fF74N1GxxSDs0WMDhlZfwUCk2lEKy6zExWoBL7BiAsMIoph4OzLeA2ysUN2PcrYDIPGG8LHD3Dq5+9KKqUdAqcVScvY+BgfXbMLodD9Vmq01KhidyqNiERsoJCfuq2saqKbZO7EbzyI0cgOfM7LgVGozmcPJGEp0F36d5B/CZ7Qet5gpMLBCu72qOcRQd+x+OD9FnO0+VwqOf0eFLyt9+i3MMD1WFhLO7U3bvHoFBLYGg/BWwK3B5r1+Pg7xE8nANX04Uk1Gzdzq9oNxwayl+3nAfjF8fyz4t2Cxw/Dw/MnDgRWd87MQCkEBq1xDdjWUvbBCbP2QVrZszAVLMpeOwJY0yat4fFnJD0YjU4hLsl9Y1MPVwlUBvlbPaOxfT/fs1Wnv508KDggN0Ch85IgOhJ4kXTLOC78VvccHVlQMJ27cKxpcsYFOOhQ7Fz9WrWwczsIkx8ZzH66pvA9VdfQadb2xDVykBZOC2Y1ATnPzvcMOyZZ/H1OnuV5dJug0MXJCotBT07am5qyh4V0NHRYU8fz506lUFRNV/tGxyPoaPMYWk1V+ula7QiLDyjWC0cB3cfjHvNHFOmTuOHbVXAuxWOqg5ou2+LkycG6hvBYcMmQYrf2vfTiqr4GjJl4M4+MXhnjg1GPDtaqx8I+dvAIQg0AWm1wBGDDYxw6pR2vxfol5TPCuxzV2zEk0MN4aJhNVdz2H8rOFzHqTRCvwFGP1zU2gOvVNL4Zr87DEc8i2XLV6iMK9wxVbV/SzjchRAYAkSguN8E496jZx7emDwVb0+zUKrTcJ/R1P6t4XAXR78mZ2xsjJ27dqGgsBArVq9lz5h39IeH/hFwCBL9VMP69euhb2CA7Tt2ah20OcCq2n8MHFUX19F9/wcLk2Tm1rw+BAAAAABJRU5ErkJggg==;imageBorder=#00CC00;strokeWidth=2;" vertex="1" parent="1">
          <mxGeometry x="1250" y="1530" width="52.45" height="61.31" as="geometry" />
        </mxCell>
        <mxCell id="pbRzU69PLnPCZLxHabNj-1" value="&lt;span style=&quot;color: rgb(0, 0, 0); font-family: Helvetica; font-size: 11px; font-style: normal; font-variant-ligatures: normal; font-variant-caps: normal; font-weight: 400; letter-spacing: normal; orphans: 2; text-align: center; text-indent: 0px; text-transform: none; widows: 2; word-spacing: 0px; -webkit-text-stroke-width: 0px; background-color: rgb(251, 251, 251); text-decoration-thickness: initial; text-decoration-style: initial; text-decoration-color: initial; float: none; display: inline !important;&quot;&gt;- POST:&amp;nbsp;&lt;/span&gt;/v2/checkout/orders" style="text;whiteSpace=wrap;html=1;" vertex="1" parent="1">
          <mxGeometry x="1150" y="1290" width="370" height="40" as="geometry" />
        </mxCell>
        <mxCell id="pbRzU69PLnPCZLxHabNj-2" value="&lt;span style=&quot;color: rgb(0, 0, 0); font-family: Helvetica; font-size: 11px; font-style: normal; font-variant-ligatures: normal; font-variant-caps: normal; font-weight: 400; letter-spacing: normal; orphans: 2; text-align: center; text-indent: 0px; text-transform: none; widows: 2; word-spacing: 0px; -webkit-text-stroke-width: 0px; background-color: rgb(251, 251, 251); text-decoration-thickness: initial; text-decoration-style: initial; text-decoration-color: initial; float: none; display: inline !important;&quot;&gt;- GET:&amp;nbsp;&lt;/span&gt;/v2/checkout/orders/{id}" style="text;whiteSpace=wrap;html=1;" vertex="1" parent="1">
          <mxGeometry x="1150" y="1320.68" width="370" height="40" as="geometry" />
        </mxCell>
        <mxCell id="pbRzU69PLnPCZLxHabNj-4" value="&lt;span style=&quot;color: rgb(0, 0, 0); font-family: Helvetica; font-size: 11px; font-style: normal; font-variant-ligatures: normal; font-variant-caps: normal; font-weight: 400; letter-spacing: normal; orphans: 2; text-align: center; text-indent: 0px; text-transform: none; widows: 2; word-spacing: 0px; -webkit-text-stroke-width: 0px; background-color: rgb(251, 251, 251); text-decoration-thickness: initial; text-decoration-style: initial; text-decoration-color: initial; float: none; display: inline !important;&quot;&gt;- PUT:&amp;nbsp;&lt;/span&gt;/v2/checkout/orders/{id}" style="text;whiteSpace=wrap;html=1;" vertex="1" parent="1">
          <mxGeometry x="1150" y="1390" width="370" height="40" as="geometry" />
        </mxCell>
        <mxCell id="pbRzU69PLnPCZLxHabNj-5" value="&lt;span style=&quot;color: rgb(0, 0, 0); font-family: Helvetica; font-size: 11px; font-style: normal; font-variant-ligatures: normal; font-variant-caps: normal; font-weight: 400; letter-spacing: normal; orphans: 2; text-align: center; text-indent: 0px; text-transform: none; widows: 2; word-spacing: 0px; -webkit-text-stroke-width: 0px; background-color: rgb(251, 251, 251); text-decoration-thickness: initial; text-decoration-style: initial; text-decoration-color: initial; float: none; display: inline !important;&quot;&gt;- POST:&amp;nbsp;&lt;/span&gt;/v2/checkout/orders/{id}/confirm-payment-source" style="text;whiteSpace=wrap;html=1;" vertex="1" parent="1">
          <mxGeometry x="1150" y="1360" width="370" height="40" as="geometry" />
        </mxCell>
        <mxCell id="pbRzU69PLnPCZLxHabNj-6" value="&lt;span style=&quot;color: rgb(0, 0, 0); font-family: Helvetica; font-size: 11px; font-style: normal; font-variant-ligatures: normal; font-variant-caps: normal; font-weight: 400; letter-spacing: normal; orphans: 2; text-align: center; text-indent: 0px; text-transform: none; widows: 2; word-spacing: 0px; -webkit-text-stroke-width: 0px; background-color: rgb(251, 251, 251); text-decoration-thickness: initial; text-decoration-style: initial; text-decoration-color: initial; float: none; display: inline !important;&quot;&gt;- POST:&amp;nbsp;&lt;/span&gt;/v2/checkout/orders/{id}/authorize" style="text;whiteSpace=wrap;html=1;" vertex="1" parent="1">
          <mxGeometry x="1150" y="1420" width="370" height="40" as="geometry" />
        </mxCell>
        <mxCell id="pbRzU69PLnPCZLxHabNj-7" value="&lt;span style=&quot;color: rgb(0, 0, 0); font-family: Helvetica; font-size: 11px; font-style: normal; font-variant-ligatures: normal; font-variant-caps: normal; font-weight: 400; letter-spacing: normal; orphans: 2; text-align: center; text-indent: 0px; text-transform: none; widows: 2; word-spacing: 0px; -webkit-text-stroke-width: 0px; background-color: rgb(251, 251, 251); text-decoration-thickness: initial; text-decoration-style: initial; text-decoration-color: initial; float: none; display: inline !important;&quot;&gt;- POST:&amp;nbsp;&lt;/span&gt;/v2/checkout/orders/{id}/capture" style="text;whiteSpace=wrap;html=1;" vertex="1" parent="1">
          <mxGeometry x="1150" y="1460" width="370" height="40" as="geometry" />
        </mxCell>
        <mxCell id="pbRzU69PLnPCZLxHabNj-8" value="&lt;span style=&quot;color: rgb(0, 0, 0); font-family: Helvetica; font-size: 11px; font-style: normal; font-variant-ligatures: normal; font-variant-caps: normal; letter-spacing: normal; orphans: 2; text-align: center; text-indent: 0px; text-transform: none; widows: 2; word-spacing: 0px; -webkit-text-stroke-width: 0px; background-color: rgb(251, 251, 251); text-decoration-thickness: initial; text-decoration-style: initial; text-decoration-color: initial; float: none; display: inline !important;&quot;&gt;- POST:&amp;nbsp;&lt;/span&gt;v1/Authorizations" style="text;whiteSpace=wrap;html=1;" vertex="1" parent="1">
          <mxGeometry x="1150" y="1620" width="370" height="40" as="geometry" />
        </mxCell>
        <mxCell id="pbRzU69PLnPCZLxHabNj-9" value="&lt;span style=&quot;color: rgb(0, 0, 0); font-family: Helvetica; font-size: 11px; font-style: normal; font-variant-ligatures: normal; font-variant-caps: normal; letter-spacing: normal; orphans: 2; text-align: center; text-indent: 0px; text-transform: none; widows: 2; word-spacing: 0px; -webkit-text-stroke-width: 0px; background-color: rgb(251, 251, 251); text-decoration-thickness: initial; text-decoration-style: initial; text-decoration-color: initial; float: none; display: inline !important;&quot;&gt;- POST:&amp;nbsp;&lt;/span&gt;v1/cips" style="text;whiteSpace=wrap;html=1;" vertex="1" parent="1">
          <mxGeometry x="1150" y="1650" width="370" height="40" as="geometry" />
        </mxCell>
        <mxCell id="mjzRXRu83KD-gOHXQSz9-1" value="- Ocp-Apim-Subscription-Key&lt;br style=&quot;border-color: var(--border-color);&quot;&gt;- Authorization bearer (token que se envia en la cabecera)" style="verticalLabelPosition=bottom;aspect=fixed;html=1;verticalAlign=top;strokeColor=none;align=center;outlineConnect=0;shape=mxgraph.citrix.role_security;fillColor=#CCCCCC;gradientColor=#000000;gradientDirection=south;whiteSpace=wrap;" vertex="1" parent="1">
          <mxGeometry x="40" y="1184.31" width="38" height="38" as="geometry" />
        </mxCell>
        <mxCell id="M5ZmJ4LLTEdxzqSvC7uQ-1" value="" style="endArrow=classic;html=1;rounded=0;" edge="1" parent="1" target="mPwONwSeZXPIwK1l72h_-5">
          <mxGeometry width="50" height="50" relative="1" as="geometry">
            <mxPoint x="-120" y="1060" as="sourcePoint" />
            <mxPoint x="670" y="870" as="targetPoint" />
            <Array as="points">
              <mxPoint x="-120" y="860" />
            </Array>
          </mxGeometry>
        </mxCell>
        <mxCell id="M5ZmJ4LLTEdxzqSvC7uQ-2" value="" style="endArrow=classic;html=1;rounded=0;entryX=0;entryY=0.5;entryDx=0;entryDy=0;" edge="1" parent="1" target="HZGF-DH1Zp5XKyqKNK4A-4">
          <mxGeometry width="50" height="50" relative="1" as="geometry">
            <mxPoint x="-30" y="1192" as="sourcePoint" />
            <mxPoint x="800" y="1110" as="targetPoint" />
          </mxGeometry>
        </mxCell>
        <mxCell id="M5ZmJ4LLTEdxzqSvC7uQ-3" value="" style="endArrow=classic;html=1;rounded=0;exitX=0.5;exitY=1;exitDx=0;exitDy=0;" edge="1" parent="1" source="rT_oUZzS3V4J9xVRkxf5-4" target="3zlR94gZ55OXKOGAVrWg-1">
          <mxGeometry width="50" height="50" relative="1" as="geometry">
            <mxPoint x="-80" y="1400" as="sourcePoint" />
            <mxPoint x="680" y="1390" as="targetPoint" />
            <Array as="points">
              <mxPoint x="-115" y="1560" />
            </Array>
          </mxGeometry>
        </mxCell>
        <mxCell id="WT7Ua_JacTZXpNcvoKpW-1" value="- POST: /&lt;font color=&quot;#ff0000&quot;&gt;ux&lt;/font&gt;-generear-cpi/health&lt;font color=&quot;#ff0000&quot;&gt;/servicio-al-cliente/v1&lt;/font&gt;/generar-cpi" style="edgeLabel;html=1;align=center;verticalAlign=middle;resizable=0;points=[];fontColor=#000000;labelBackgroundColor=none;" connectable="0" vertex="1" parent="1">
          <mxGeometry x="789.9979124315073" y="1659.9988310545596" as="geometry">
            <mxPoint x="-16" y="-69" as="offset" />
          </mxGeometry>
        </mxCell>
        <mxCell id="lronZqVdKuRGziDEOom1-1" value="- POST: /&lt;font color=&quot;#ff0000&quot;&gt;ux&lt;/font&gt;-autorizar-cpi/health&lt;font color=&quot;#ff0000&quot;&gt;/servicio-al-cliente/v1&lt;/font&gt;/autorizar-cpi" style="edgeLabel;html=1;align=center;verticalAlign=middle;resizable=0;points=[];fontColor=#000000;labelBackgroundColor=none;" connectable="0" vertex="1" parent="1">
          <mxGeometry x="789.9979124315073" y="1609.9988310545596" as="geometry">
            <mxPoint x="-16" y="-69" as="offset" />
          </mxGeometry>
        </mxCell>
        <mxCell id="ayFW_ygrSuyMAlqFtJtB-1" value="ux-gestion-medicos/health/servicio-al-cliente/v1//consultar-medicos" style="text;html=1;align=center;verticalAlign=middle;resizable=0;points=[];autosize=1;strokeColor=none;fillColor=none;" vertex="1" parent="1">
          <mxGeometry x="820" y="740" width="380" height="30" as="geometry" />
        </mxCell>
        <mxCell id="ayFW_ygrSuyMAlqFtJtB-2" value="Text" style="text;html=1;align=center;verticalAlign=middle;resizable=0;points=[];autosize=1;strokeColor=none;fillColor=none;" vertex="1" parent="1">
          <mxGeometry x="1055" y="628" width="50" height="30" as="geometry" />
        </mxCell>
        <mxCell id="ayFW_ygrSuyMAlqFtJtB-3" value="ux-gestion-medicos/health/servicio-al-cliente/v1//consultar-especialidades" style="text;html=1;align=center;verticalAlign=middle;resizable=0;points=[];autosize=1;strokeColor=none;fillColor=none;" vertex="1" parent="1">
          <mxGeometry x="832" y="700" width="410" height="30" as="geometry" />
        </mxCell>
        <mxCell id="ayFW_ygrSuyMAlqFtJtB-5" value="- GET: /&lt;font color=&quot;#ff0000&quot;&gt;ux&lt;/font&gt;-pagos/health/&lt;font color=&quot;#ff0000&quot;&gt;servicio-al-cliente/v1&lt;/font&gt;/detalle-ordenes" style="edgeLabel;html=1;align=center;verticalAlign=middle;resizable=0;points=[];fontColor=#000000;" connectable="0" vertex="1" parent="1">
          <mxGeometry x="789.9979124315073" y="1429.99883105456" as="geometry" />
        </mxCell>
      </root>
    </mxGraphModel>
  </diagram>
</mxfile>
